<svg width="907" height="72" viewBox="0 0 907 72" fill="none" xmlns="http://www.w3.org/2000/svg">
<path d="M812.698 52.8551C827.472 52.8551 843.475 50.3054 854.795 61.6252C857.416 64.2464 858.303 65.6405 858.303 69.3233C858.303 72.7893 859.534 62.5017 860.154 59.0916C861.089 53.9512 865.982 51.5297 869.801 49.3471C876.529 45.5028 878.1 51.1011 884.613 51.1011" stroke="black" stroke-width="3" stroke-linecap="round"/>
<path d="M2.34711 16.021C9.05935 16.021 16.4062 16.0921 22.4207 19.529C25.2881 21.1675 28.6572 30.5296 28.6572 27.2271C28.6572 17.7972 25.2473 7.25093 37.4273 7.25093" stroke="black" stroke-width="3" stroke-linecap="round"/>
<path d="M869.009 9.03694C875.187 11.6613 881.922 14.5994 886.114 20.1142C888.112 22.7434 887.552 32.6775 888.844 29.638C892.531 20.9587 893.516 9.91869 904.726 14.6809" stroke="black" stroke-width="3" stroke-linecap="round"/>
<path d="M100.572 61.6252C107.935 61.6252 108.29 65.5905 113.629 68.6412C114.176 68.954 118.538 62.5271 119.866 59.8712" stroke="black" stroke-width="3" stroke-linecap="round"/>
</svg>
