<?xml version="1.0" standalone="no"?>
<!DOCTYPE svg PUBLIC "-//W3C//DTD SVG 20010904//EN"
 "http://www.w3.org/TR/2001/REC-SVG-20010904/DTD/svg10.dtd">
<svg version="1.0" xmlns="http://www.w3.org/2000/svg"
 width="700.000000pt" height="700.000000pt" viewBox="0 0 700.000000 700.000000"
 preserveAspectRatio="xMidYMid meet">
<metadata>
Created by potrace 1.14, written by Peter Selinger 2001-2017
</metadata>
<g transform="translate(0.000000,700.000000) scale(0.100000,-0.100000)"
fill="#000000" stroke="none">
<path d="M3415 6290 c-23 -6 -952 -400 -1140 -484 -16 -8 -59 -26 -95 -41 -36
-15 -79 -33 -95 -41 -17 -7 -289 -124 -605 -259 -316 -135 -594 -257 -617
-271 -126 -74 -190 -237 -149 -387 31 -112 106 -191 238 -246 34 -15 77 -33
93 -40 17 -7 201 -86 410 -176 l380 -162 33 28 c43 38 65 49 347 169 132 56
258 110 280 120 22 10 132 57 245 105 113 48 228 98 257 111 28 13 54 24 57
24 3 0 29 11 58 24 29 13 94 41 143 62 50 20 95 41 100 44 24 17 121 32 179
28 241 -19 390 -278 284 -496 -38 -80 -115 -150 -198 -182 -19 -7 -57 -23 -85
-35 -27 -12 -205 -89 -395 -170 -190 -81 -370 -158 -400 -172 l-54 -25 174
-74 c96 -41 194 -84 217 -94 24 -11 45 -20 49 -20 3 0 31 -12 62 -26 194 -89
223 -98 312 -98 74 0 96 4 165 33 44 19 84 38 90 42 5 5 15 9 22 9 7 0 36 11
65 24 104 47 146 65 383 166 132 56 258 110 280 120 22 10 69 30 105 44 36 15
83 35 105 45 22 10 211 92 420 181 392 167 401 171 498 214 32 14 61 26 65 26
4 0 24 9 45 20 20 11 37 17 37 14 0 -4 6 -2 13 4 6 5 84 40 172 78 194 83 245
121 295 219 32 62 35 75 35 154 0 100 -26 169 -89 239 -49 54 -85 71 -791 373
-335 143 -623 266 -640 273 -16 8 -46 20 -65 29 -19 8 -98 42 -175 75 -77 33
-169 72 -205 87 -36 15 -83 35 -105 45 -22 10 -137 59 -255 110 -118 50 -233
100 -255 110 -115 52 -217 69 -300 50z"/>
<path d="M1150 3670 c-10 -39 -33 -149 -46 -224 -2 -17 -6 -38 -9 -46 -2 -8
-7 -46 -10 -85 -4 -38 -8 -72 -10 -75 -18 -30 -27 -590 -12 -768 13 -153 50
-241 130 -306 61 -50 118 -72 222 -86 50 -6 113 -15 140 -20 28 -5 66 -12 85
-15 19 -3 52 -10 72 -16 l37 -10 3 -527 3 -527 33 -67 c38 -77 91 -128 172
-167 79 -37 201 -37 281 1 79 36 133 89 171 166 l33 67 3 402 c2 222 5 403 8
403 3 0 33 -16 65 -35 33 -19 63 -35 66 -35 8 0 179 -107 260 -163 99 -68 228
-172 350 -283 122 -111 177 -141 270 -150 132 -12 214 27 353 166 25 25 142
123 210 176 66 52 257 184 265 184 3 0 29 16 59 35 76 48 313 165 426 210 257
101 528 171 775 200 144 17 218 48 283 120 36 39 78 121 86 170 28 154 29 665
2 870 -3 17 -7 53 -10 80 -5 44 -12 87 -30 185 -13 73 -39 186 -44 196 -5 8
-101 -28 -287 -108 -154 -65 -293 -125 -310 -132 -143 -66 -1375 -588 -1425
-605 -110 -36 -202 -49 -343 -47 -208 4 -236 13 -869 287 l-158 68 0 -690 c0
-405 -4 -689 -9 -689 -5 0 -26 9 -48 19 -63 32 -134 62 -203 88 -36 13 -74 28
-85 33 -25 12 -232 73 -302 90 l-53 12 -2 719 -3 720 -280 120 c-154 66 -285
123 -292 125 -7 4 -16 -10 -23 -36z"/>
</g>
</svg>
