<?xml version="1.0" standalone="no"?>
<!DOCTYPE svg PUBLIC "-//W3C//DTD SVG 20010904//EN"
 "http://www.w3.org/TR/2001/REC-SVG-20010904/DTD/svg10.dtd">
<svg version="1.0" xmlns="http://www.w3.org/2000/svg"
 width="512.000000pt" height="512.000000pt" viewBox="0 0 512.000000 512.000000"
 preserveAspectRatio="xMidYMid meet">
<metadata>
Created by potrace 1.14, written by Peter Selinger 2001-2017
</metadata>
<g transform="translate(0.000000,512.000000) scale(0.100000,-0.100000)"
fill="#000000" stroke="none">
<path d="M2478 4520 c-6 -12 -181 -80 -191 -73 -6 3 -7 1 -3 -5 4 -7 2 -13 -3
-13 -17 -2 -23 -4 -71 -26 -40 -18 -76 -33 -90 -38 -3 -1 -27 -11 -53 -23
-151 -68 -189 -82 -199 -76 -6 4 -8 3 -4 -4 8 -13 -29 -26 -45 -16 -7 4 -9 3
-6 -3 10 -16 -135 -74 -151 -61 -9 8 -11 7 -7 -5 5 -11 -4 -18 -29 -27 -20 -6
-41 -8 -47 -4 -8 4 -9 3 -5 -4 4 -8 -4 -16 -21 -22 -15 -6 -37 -15 -48 -20
-11 -5 -27 -11 -35 -12 -8 -2 -21 -9 -29 -16 -7 -7 -19 -11 -26 -8 -8 3 -15
-1 -18 -8 -6 -15 -76 -38 -90 -29 -6 3 -7 2 -4 -4 4 -6 -5 -15 -19 -22 -32
-14 -37 -14 -29 2 4 6 0 5 -7 -4 -12 -15 -71 -45 -103 -53 -5 -2 -30 -12 -55
-23 -45 -20 -80 -35 -90 -38 -3 0 -32 -14 -65 -29 -33 -16 -64 -29 -70 -30 -9
-2 -45 -18 -142 -63 -18 -8 -48 -32 -67 -53 -19 -21 -38 -35 -42 -32 -4 4 -4
1 0 -5 4 -7 1 -23 -6 -35 -7 -13 -13 -31 -14 -40 -1 -10 -2 -19 -3 -20 -6 -9
-5 -95 1 -91 16 9 7 -10 -9 -23 -16 -12 -16 -12 4 -7 20 4 23 1 23 -21 0 -15
4 -25 9 -21 12 7 24 -31 15 -47 -5 -10 -4 -10 6 -1 10 9 17 6 35 -13 12 -13
24 -21 27 -19 3 3 13 -4 22 -14 10 -11 24 -17 32 -14 8 3 14 0 14 -6 0 -6 3
-10 8 -9 12 4 72 -24 72 -33 0 -5 6 -8 13 -7 7 2 11 -6 10 -22 l-3 -25 15 25
c8 14 14 20 15 13 0 -7 6 -11 12 -9 7 1 10 1 6 -1 -19 -11 -6 -23 12 -13 14 7
20 7 20 0 0 -5 8 -10 18 -10 10 0 22 -3 26 -7 4 -5 11 -8 14 -8 4 -1 17 -6 30
-13 12 -7 22 -10 22 -6 0 3 6 1 13 -5 8 -6 18 -7 22 -3 5 4 5 1 1 -5 -6 -12 5
-18 27 -14 4 0 7 -4 7 -9 0 -6 6 -10 13 -9 24 3 37 -1 37 -12 0 -8 -4 -8 -13
-1 -10 8 -13 6 -14 -11 -2 -17 0 -19 7 -7 5 8 10 11 10 6 0 -5 6 -3 14 3 10 9
16 9 21 1 4 -6 14 -9 23 -5 9 3 13 3 10 -1 -4 -3 -1 -13 7 -20 16 -17 29 -19
19 -3 -4 8 0 8 15 0 26 -14 27 -27 4 -40 -16 -9 -16 -10 4 -8 12 0 19 5 17 9
-3 4 8 8 25 8 16 0 32 -6 34 -12 4 -10 6 -10 6 0 1 7 6 10 11 7 8 -5 7 -11 -1
-21 -15 -19 -2 -18 17 1 9 8 12 15 8 15 -4 0 5 9 19 20 30 24 38 25 31 6 -3
-8 0 -17 6 -21 6 -3 10 -3 9 2 -5 27 3 52 19 58 14 5 15 4 5 -6 -7 -7 -13 -18
-13 -23 0 -6 4 -5 9 3 8 13 12 13 27 0 11 -9 15 -9 10 -1 -7 11 4 16 31 13 6
-1 14 2 17 7 6 10 -35 10 -50 0 -6 -4 -11 -1 -11 7 0 8 8 15 18 15 10 0 21 5
24 10 4 6 10 8 15 5 5 -3 12 -1 15 5 4 6 16 8 27 4 13 -4 18 -2 14 4 -3 5 1
13 10 16 10 4 13 2 9 -7 -4 -6 1 -3 10 8 16 20 17 20 30 1 8 -10 12 -23 8 -29
-3 -6 -1 -7 5 -3 9 5 9 13 2 26 -18 33 -11 34 22 4 32 -28 32 -28 9 -1 -18 19
-22 30 -14 38 8 8 13 7 18 -2 6 -8 4 -10 -5 -4 -9 5 -11 4 -6 -4 6 -9 13 -8
31 3 21 14 24 14 39 -7 15 -21 16 -21 4 6 -12 30 -18 33 -36 15 -7 -7 -12 -8
-12 -2 0 6 12 16 26 22 14 7 23 8 20 3 -3 -4 3 -16 13 -25 17 -15 19 -15 32 1
12 16 12 17 -2 6 -9 -7 -19 -10 -22 -6 -11 10 -8 33 4 33 5 0 7 -6 3 -12 -4
-8 -3 -10 2 -5 5 5 9 14 9 20 0 7 10 13 22 13 12 1 20 -3 17 -8 -3 -4 -10 -6
-15 -3 -5 4 -9 1 -9 -4 0 -6 4 -11 9 -11 14 0 33 28 27 39 -3 5 2 8 11 7 10
-2 22 2 26 8 5 6 6 0 2 -14 l-6 -25 13 23 c14 23 58 58 58 46 0 -3 8 0 17 7
11 10 14 10 9 2 -4 -7 -2 -13 3 -13 6 0 11 6 11 14 0 8 7 17 16 20 21 8 24 8
24 -4 0 -5 -5 -9 -11 -7 -6 1 -14 -5 -16 -13 -4 -13 -3 -13 6 0 10 13 11 13
11 0 0 -8 9 0 20 18 11 18 25 30 30 27 6 -3 10 -1 10 5 0 7 6 10 13 7 6 -2 23
4 36 15 16 12 28 15 36 8 6 -5 16 -6 20 -2 5 4 6 0 2 -9 -4 -13 -1 -16 14 -12
18 5 19 6 2 18 -10 7 -21 11 -25 9 -5 -3 -8 0 -8 6 0 7 6 10 14 7 8 -3 20 1
26 8 7 8 15 14 18 13 17 -2 71 15 67 22 -4 7 10 10 60 11 17 1 23 3 12 6 -9 2
-15 9 -11 14 3 5 9 7 14 4 5 -3 21 2 35 11 14 9 25 12 25 8 0 -5 4 -3 9 5 7
11 10 9 16 -8 5 -18 8 -19 21 -7 18 18 19 32 1 17 -10 -8 -14 -7 -14 3 0 8 7
13 16 11 9 -1 19 3 23 9 6 8 8 8 8 0 0 -7 15 -10 38 -8 28 1 39 -2 39 -12 0
-9 -4 -11 -12 -4 -6 5 -22 7 -35 5 -27 -5 -62 -35 -42 -35 7 0 12 5 12 11 0 8
5 7 15 -1 13 -11 14 -10 9 3 -6 16 -3 16 41 7 23 -5 36 1 29 13 -4 6 2 3 14
-7 12 -11 25 -17 28 -13 10 10 46 -34 40 -50 -5 -13 -4 -13 7 -4 20 16 42 -10
25 -27 -9 -9 -9 -15 1 -24 10 -11 11 -10 6 5 -11 28 3 19 20 -12 11 -22 12
-32 3 -37 -8 -5 -7 -10 3 -18 19 -15 23 -38 7 -47 -11 -7 -11 -9 0 -9 7 0 10
-5 7 -10 -4 -6 -12 -7 -18 -3 -7 4 -5 -1 3 -12 8 -10 14 -20 13 -22 -57 -105
-60 -108 -85 -104 -5 0 -7 -5 -5 -12 3 -15 -103 -68 -123 -61 -8 3 -11 2 -7
-2 4 -4 -21 -20 -55 -34 -35 -15 -90 -39 -123 -55 -33 -15 -67 -29 -75 -30 -8
-2 -17 -4 -20 -5 -3 -1 -8 -2 -12 -1 -5 0 -8 -3 -8 -8 0 -8 -41 -23 -56 -20
-4 0 -10 -3 -13 -8 -3 -5 -42 -24 -86 -43 -132 -57 -144 -64 -131 -76 6 -5 13
-10 16 -11 20 -1 50 -16 50 -24 0 -5 7 -9 16 -9 8 0 12 -4 9 -10 -3 -5 -2 -10
4 -10 5 0 12 6 14 13 4 9 6 9 6 -1 1 -7 6 -10 13 -6 7 4 8 3 4 -5 -4 -6 -11
-9 -16 -6 -5 3 -12 0 -16 -6 -4 -7 -3 -9 4 -5 6 3 16 -2 22 -11 10 -15 11 -15
6 -1 -2 9 2 19 9 22 21 8 29 -12 14 -32 -12 -15 -12 -15 7 1 23 19 44 22 44 6
0 -5 -4 -8 -9 -5 -5 3 -14 -1 -21 -9 -9 -10 -9 -15 -1 -15 6 0 11 5 11 11 0 5
4 8 9 4 5 -3 13 -1 16 5 5 8 11 8 19 1 7 -6 17 -7 21 -3 5 4 4 1 0 -7 -6 -11
-4 -13 8 -8 9 3 23 -1 32 -9 8 -8 25 -17 37 -18 36 -4 90 -36 85 -50 -3 -8 5
-11 29 -8 20 3 34 0 34 -7 0 -6 -8 -8 -17 -5 -15 5 -15 4 -3 -4 8 -6 18 -8 22
-6 8 5 12 -11 9 -30 -1 -5 5 -4 13 4 17 13 22 25 7 16 -5 -3 -12 1 -15 10 -9
23 -7 27 7 17 14 -11 97 -11 115 0 6 5 12 4 12 0 0 -5 -9 -14 -20 -21 -11 -7
-20 -18 -20 -25 0 -6 5 -4 11 5 9 17 12 17 37 2 22 -13 23 -13 9 -1 -15 12
-16 19 -8 36 7 13 17 18 28 14 11 -4 14 -3 9 5 -4 7 -2 12 4 12 7 0 9 -9 5
-22 -4 -16 -3 -19 3 -9 8 11 10 11 15 0 3 -8 4 -2 2 14 -2 15 0 25 5 22 5 -3
11 -1 15 5 4 7 12 7 25 0 13 -7 19 -6 23 5 4 10 1 12 -11 9 -14 -5 -15 -4 -2
5 8 6 23 8 34 5 13 -4 16 -3 11 6 -5 8 -4 11 3 6 5 -3 13 0 16 6 3 7 3 2 0
-12 -4 -18 -3 -21 4 -11 5 7 14 11 19 8 5 -3 10 0 10 8 0 8 -4 12 -9 9 -4 -3
-5 2 -2 10 5 12 9 13 19 3 7 -7 11 -15 9 -19 -2 -4 1 -10 7 -14 7 -4 9 -3 6 3
-8 13 17 36 27 26 4 -4 11 -1 16 7 5 8 15 15 22 15 7 0 12 8 12 17 -1 9 5 19
13 22 8 3 12 2 9 -3 -3 -5 10 -9 30 -8 20 1 32 3 25 5 -6 2 -8 8 -5 14 4 6 -3
5 -17 -2 -23 -10 -23 -10 -5 4 15 12 23 13 33 4 11 -9 12 -7 7 7 -5 12 -4 16
3 12 6 -4 19 0 27 9 21 21 21 6 -1 -18 -13 -15 -14 -21 -4 -31 10 -9 11 -9 6
4 -7 18 16 41 35 37 7 -2 14 3 15 10 2 7 1 8 -2 2 -2 -5 -9 -8 -14 -5 -5 4 -3
12 3 19 9 9 15 10 24 2 7 -6 10 -14 8 -17 -2 -3 3 -6 11 -6 8 0 13 3 13 6 -3
14 15 40 23 35 5 -3 9 2 9 10 0 19 16 21 26 4 4 -7 3 -8 -4 -4 -7 4 -12 3 -12
-2 0 -6 6 -12 14 -15 10 -4 13 1 11 19 -1 14 0 22 3 20 2 -3 17 4 33 14 25 19
29 19 44 4 15 -16 16 -16 13 1 -2 10 2 20 9 22 7 3 11 -3 8 -15 -2 -11 2 -19
11 -19 8 0 10 4 5 11 -5 6 -5 20 0 31 5 14 8 16 9 5 2 -8 2 -19 0 -25 -1 -5 4
-4 11 3 7 6 17 12 22 12 4 0 5 -6 1 -12 -4 -8 -3 -10 2 -5 5 5 9 12 9 16 0 4
13 20 30 35 20 18 37 26 52 23 13 -2 26 0 30 6 4 6 1 7 -8 2 -12 -8 -12 -6 0
8 7 9 17 14 22 11 5 -3 9 0 9 7 0 7 3 9 7 6 4 -4 -4 -22 -16 -40 l-22 -32 24
27 c14 15 27 24 30 22 3 -3 4 3 4 13 -2 18 20 25 39 11 7 -5 17 -2 24 7 10 12
16 13 29 3 14 -12 14 -11 2 5 -13 16 -15 16 -31 2 -16 -14 -18 -14 -24 0 -3 9
-2 13 4 10 5 -3 21 2 35 11 14 9 25 13 25 9 0 -5 9 0 20 10 11 10 20 14 20 10
0 -5 5 -4 12 3 15 15 28 15 28 1 0 -5 -4 -7 -10 -4 -6 4 -7 -1 -3 -12 6 -15 8
-14 17 8 7 15 17 24 25 21 8 -2 11 0 8 5 -3 5 4 10 16 10 12 1 23 7 25 13 2 5
15 10 28 10 14 0 23 4 20 8 -5 8 8 12 46 13 10 0 17 6 15 12 -1 7 4 11 11 9 6
-1 12 3 12 10 0 6 6 4 13 -7 10 -13 16 -15 21 -6 4 6 12 8 18 5 6 -4 14 0 19
7 4 8 14 14 21 14 7 0 12 8 12 17 -1 10 1 17 5 16 3 -1 23 6 43 15 46 21 54
21 38 2 -7 -8 -16 -12 -21 -9 -5 3 -16 1 -25 -4 -12 -6 -6 -9 19 -8 20 1 35 5
34 11 -1 5 6 9 17 8 13 -1 15 2 7 10 -6 6 -11 15 -11 21 0 5 3 6 7 3 3 -4 12
-2 20 4 7 6 13 8 13 4 0 -5 9 0 19 9 20 18 41 15 41 -6 0 -7 -4 -7 -14 1 -10
9 -16 8 -26 -4 -7 -8 -17 -12 -23 -8 -6 4 -7 1 -2 -7 6 -9 4 -11 -6 -5 -8 5
-10 4 -6 0 10 -11 39 -16 32 -5 -6 10 20 32 29 23 3 -4 13 -8 21 -9 12 -2 13
2 4 18 -8 15 -8 23 2 32 9 8 10 8 5 -1 -5 -9 0 -13 13 -13 12 0 21 5 21 11 0
5 -5 7 -12 3 -7 -4 -8 -3 -4 5 4 6 11 9 16 6 5 -3 12 0 16 6 5 9 11 7 21 -6 7
-11 13 -13 13 -6 0 7 4 10 9 7 10 -7 24 22 16 34 -3 4 2 10 9 13 10 4 13 0 11
-14 -2 -11 0 -17 6 -14 5 4 7 10 4 14 -2 5 11 30 30 57 19 27 35 55 35 61 0 7
4 13 8 13 5 0 9 8 9 18 -1 58 4 83 14 76 6 -3 3 5 -6 19 -9 15 -14 30 -11 36
3 5 1 11 -5 13 -6 2 -12 15 -12 30 -1 14 -4 25 -6 22 -7 -7 -41 38 -35 48 3 4
2 7 -3 6 -9 -3 -64 31 -74 45 -3 5 -8 8 -10 6 -8 -5 -99 34 -99 43 0 5 -4 6
-10 3 -13 -8 -52 13 -45 25 3 4 -3 6 -13 3 -22 -5 -124 41 -114 52 4 5 2 5 -4
2 -16 -9 -197 67 -187 78 5 4 3 5 -4 2 -15 -9 -45 2 -37 14 3 5 -1 6 -9 4 -18
-7 -99 29 -89 40 4 5 2 5 -5 1 -6 -3 -57 14 -112 39 -56 25 -106 45 -111 45
-6 0 -10 4 -10 10 0 5 -3 9 -7 9 -25 -4 -43 2 -37 13 4 6 3 8 -4 4 -15 -9
-203 74 -195 87 4 6 1 7 -6 3 -11 -7 -103 28 -231 87 -46 21 -52 24 -71 26 -5
0 -8 5 -5 10 3 5 0 9 -7 8 -34 -1 -48 4 -41 15 4 6 3 8 -3 5 -12 -7 -104 30
-114 45 -3 5 -9 9 -13 9 -22 -3 -37 1 -50 15 -9 8 -16 13 -16 10 0 -3 -24 4
-52 16 -50 21 -193 34 -200 18z m1932 -1204 c0 -2 -7 -6 -15 -10 -8 -3 -15 -1
-15 4 0 6 7 10 15 10 8 0 15 -2 15 -4z m-334 -148 c4 -7 3 -10 -1 -5 -5 4 -17
0 -27 -10 -17 -15 -18 -15 -18 1 0 9 5 14 10 11 6 -3 10 -1 10 4 0 15 17 14
26 -1z m-63 -23 c-3 -9 -8 -14 -10 -11 -3 3 -2 9 2 15 9 16 15 13 8 -4z m-573
-244 c-8 -5 -19 -9 -24 -9 -5 0 -13 -6 -18 -14 -8 -10 -9 -10 -5 2 2 8 9 15
15 15 5 0 14 3 18 8 4 4 12 7 18 7 6 0 4 -5 -4 -9z m-266 -116 c-4 -8 -11 -12
-16 -9 -6 4 -5 10 3 15 19 12 19 11 13 -6z m-218 -97 c4 -7 3 -10 -1 -5 -5 4
-17 0 -27 -10 -17 -15 -18 -15 -18 1 0 9 5 14 10 11 6 -3 10 -1 10 4 0 15 17
14 26 -1z m-62 -23 c-4 -8 -11 -12 -16 -9 -6 4 -5 10 3 15 19 12 19 11 13 -6z"/>
<path d="M2447 3491 c-11 -14 -10 -14 6 -2 18 15 24 2 6 -16 -8 -8 -7 -13 2
-18 8 -5 10 -4 5 4 -4 6 -1 14 7 17 18 6 18 31 0 31 -7 0 -19 -7 -26 -16z"/>
<path d="M2644 3498 c-4 -7 -4 -10 1 -6 4 4 15 2 24 -5 14 -11 14 -10 2 6 -16
20 -18 21 -27 5z"/>
<path d="M4537 3495 c-4 -8 -3 -16 1 -19 4 -3 9 4 9 15 2 23 -3 25 -10 4z"/>
<path d="M2593 3485 c0 -8 4 -12 9 -9 5 3 6 10 3 15 -9 13 -12 11 -12 -6z"/>
<path d="M2690 3481 c0 -5 7 -12 16 -15 14 -5 15 -4 4 9 -14 17 -20 19 -20 6z"/>
<path d="M2359 3453 c-13 -16 -12 -17 4 -4 16 13 21 21 13 21 -2 0 -10 -8 -17
-17z"/>
<path d="M2667 3459 c7 -7 15 -10 18 -7 3 3 -2 9 -12 12 -14 6 -15 5 -6 -5z"/>
<path d="M2376 3441 c-4 -5 3 -7 14 -4 23 6 26 13 6 13 -8 0 -17 -4 -20 -9z"/>
<path d="M2306 3428 c3 -5 10 -6 15 -3 13 9 11 12 -6 12 -8 0 -12 -4 -9 -9z"/>
<path d="M2256 3414 c-4 -11 -1 -12 13 -5 10 6 20 9 22 8 2 -1 3 0 1 2 -7 11
-31 8 -36 -5z"/>
<path d="M2336 3422 c-3 -5 1 -9 9 -9 8 0 12 4 9 9 -3 4 -7 8 -9 8 -2 0 -6 -4
-9 -8z"/>
<path d="M4515 3421 c-3 -5 -2 -12 3 -15 5 -3 9 1 9 9 0 17 -3 19 -12 6z"/>
<path d="M615 3390 c-3 -5 -1 -10 4 -10 6 0 11 5 11 10 0 6 -2 10 -4 10 -3 0
-8 -4 -11 -10z"/>
<path d="M2168 3380 c-14 -10 -28 -16 -32 -13 -3 3 -6 2 -6 -4 0 -6 14 -16 30
-22 18 -6 28 -6 25 -1 -4 6 -14 10 -23 10 -15 1 -15 2 1 15 11 7 24 12 30 11
7 -2 9 -1 4 1 -4 3 -5 9 -1 14 8 14 -1 11 -28 -11z"/>
<path d="M4475 3370 c-3 -5 -1 -10 4 -10 6 0 11 5 11 10 0 6 -2 10 -4 10 -3 0
-8 -4 -11 -10z"/>
<path d="M650 3354 c0 -6 20 -23 45 -38 25 -16 42 -33 38 -40 -3 -6 -3 -8 2
-4 4 4 16 3 27 -3 18 -10 18 -8 8 11 -6 11 -15 18 -19 16 -4 -3 -18 4 -29 15
-12 11 -22 17 -22 13 0 -4 -11 3 -25 16 -14 13 -25 19 -25 14z"/>
<path d="M2094 3349 c-3 -6 1 -17 10 -25 9 -8 11 -9 6 -2 -14 16 -13 31 2 22
7 -4 8 -3 4 4 -9 15 -13 15 -22 1z"/>
<path d="M2755 3320 c3 -5 8 -10 11 -10 2 0 4 5 4 10 0 6 -5 10 -11 10 -5 0
-7 -4 -4 -10z"/>
<path d="M1973 3298 c-3 -6 -1 -8 5 -4 5 3 12 2 14 -4 2 -5 9 -6 16 -1 10 6 9
10 -7 14 -12 3 -24 0 -28 -5z"/>
<path d="M4359 3298 c-6 -20 -6 -39 0 -42 4 -3 7 6 7 20 0 20 -4 32 -7 22z"/>
<path d="M685 3280 c-3 -6 1 -7 9 -4 18 7 21 14 7 14 -6 0 -13 -4 -16 -10z"/>
<path d="M795 3275 c11 -9 19 -24 17 -33 -2 -10 1 -13 5 -7 5 6 12 13 17 17 4
3 -7 14 -26 23 -30 14 -31 14 -13 0z"/>
<path d="M1973 3265 c0 -8 4 -12 9 -9 5 3 6 10 3 15 -9 13 -12 11 -12 -6z"/>
<path d="M1900 3251 c0 -6 4 -13 10 -16 6 -3 7 1 4 9 -7 18 -14 21 -14 7z"/>
<path d="M845 3240 c-16 -7 -17 -9 -3 -9 9 -1 20 4 23 9 7 11 7 11 -20 0z"/>
<path d="M1876 3222 c-3 -5 1 -9 9 -9 8 0 12 4 9 9 -3 4 -7 8 -9 8 -2 0 -6 -4
-9 -8z"/>
<path d="M919 3193 c-13 -17 -13 -17 5 -3 18 14 19 13 13 -3 -4 -11 -3 -16 3
-12 12 8 13 35 1 35 -5 0 -15 -8 -22 -17z"/>
<path d="M983 3187 c0 -7 9 -14 19 -14 10 -1 18 3 18 9 0 6 -3 8 -7 5 -3 -4
-11 -2 -18 3 -8 7 -12 6 -12 -3z"/>
<path d="M4213 3175 c0 -8 4 -12 9 -9 5 3 6 10 3 15 -9 13 -12 11 -12 -6z"/>
<path d="M1045 3158 c21 -12 23 -12 28 -1 1 3 -9 8 -23 9 -23 4 -24 3 -5 -8z"/>
<path d="M1666 3153 c-6 -14 -5 -15 5 -6 7 7 10 15 7 18 -3 3 -9 -2 -12 -12z"/>
<path d="M4125 3160 c-3 -6 1 -7 9 -4 18 7 21 14 7 14 -6 0 -13 -4 -16 -10z"/>
<path d="M4085 3140 c-3 -6 1 -7 9 -4 18 7 21 14 7 14 -6 0 -13 -4 -16 -10z"/>
<path d="M1075 3130 c-3 -6 1 -7 9 -4 18 7 21 14 7 14 -6 0 -13 -4 -16 -10z"/>
<path d="M1585 3131 c-6 -11 13 -26 22 -17 4 3 0 6 -8 6 -11 0 -11 2 1 10 9 6
10 10 3 10 -6 0 -14 -4 -18 -9z"/>
<path d="M1631 3131 c-8 -5 -9 -11 -3 -15 5 -3 12 1 16 9 6 17 6 18 -13 6z"/>
<path d="M1117 3119 c7 -7 15 -10 18 -7 3 3 -2 9 -12 12 -14 6 -15 5 -6 -5z"/>
<path d="M3966 3118 c3 -4 9 -8 15 -8 5 0 9 4 9 8 0 5 -7 9 -15 9 -8 0 -12 -4
-9 -9z"/>
<path d="M1096 3102 c-3 -5 1 -9 9 -9 8 0 12 4 9 9 -3 4 -7 8 -9 8 -2 0 -6 -4
-9 -8z"/>
<path d="M1190 3100 c0 -5 5 -10 11 -10 5 0 7 5 4 10 -3 6 -8 10 -11 10 -2 0
-4 -4 -4 -10z"/>
<path d="M3922 3098 c-15 -15 -15 -28 0 -28 6 0 8 3 5 7 -4 3 -2 12 4 20 14
16 7 17 -9 1z"/>
<path d="M1214 3078 c-4 -7 -4 -10 1 -6 4 4 14 0 22 -10 13 -15 13 -15 3 6
-12 25 -16 27 -26 10z"/>
<path d="M3948 3083 c7 -3 16 -2 19 1 4 3 -2 6 -13 5 -11 0 -14 -3 -6 -6z"/>
<path d="M3855 3069 c-4 -6 -4 -13 -1 -16 3 -4 6 -1 6 6 0 7 5 9 12 5 7 -4 8
-3 4 4 -9 15 -13 15 -21 1z"/>
<path d="M1265 3060 c-3 -6 1 -7 9 -4 18 7 21 14 7 14 -6 0 -13 -4 -16 -10z"/>
<path d="M3820 3039 c-7 -11 -10 -23 -7 -25 2 -2 9 7 15 21 14 30 7 33 -8 4z"/>
<path d="M1416 3021 c-4 -5 3 -7 14 -4 23 6 26 13 6 13 -8 0 -17 -4 -20 -9z"/>
<path d="M3709 3013 c-6 -7 -16 -10 -23 -7 -6 3 0 -3 14 -14 14 -12 27 -18 30
-16 2 3 -2 9 -9 13 -7 5 -10 14 -6 21 5 8 13 6 28 -7 15 -12 18 -13 9 -2 -6 9
-10 18 -7 21 3 2 -2 5 -10 5 -8 0 -20 -6 -26 -14z"/>
<path d="M3596 2958 c3 -4 9 -8 15 -8 5 0 9 4 9 8 0 5 -7 9 -15 9 -8 0 -12 -4
-9 -9z"/>
<path d="M3497 2909 c7 -7 15 -10 18 -7 3 3 -2 9 -12 12 -14 6 -15 5 -6 -5z"/>
<path d="M3474 2902 c3 -5 0 -13 -6 -15 -9 -4 -10 -6 -1 -6 17 -1 25 16 12 25
-7 4 -9 3 -5 -4z"/>
<path d="M3297 2843 c-3 -5 4 -15 16 -23 21 -12 21 -12 7 6 -8 10 -15 20 -16
22 -1 2 -4 -1 -7 -5z"/>
<path d="M3266 2822 c-3 -4 4 -9 15 -9 23 -2 25 3 4 10 -8 4 -16 3 -19 -1z"/>
<path d="M2040 2719 c0 -5 5 -7 10 -4 6 3 10 8 10 11 0 2 -4 4 -10 4 -5 0 -10
-5 -10 -11z"/>
<path d="M905 2670 c-6 -36 -9 -39 -23 -28 -14 10 -15 10 -4 -2 6 -8 12 -22
12 -33 0 -12 -4 -16 -12 -11 -9 5 -9 2 1 -9 7 -9 10 -17 5 -17 -5 0 -10 -21
-11 -46 -1 -26 -7 -51 -15 -55 -10 -7 -10 -9 2 -9 11 -1 10 -4 -4 -15 -11 -8
-14 -15 -8 -15 7 0 12 -9 12 -21 0 -13 -4 -18 -12 -13 -10 5 -10 4 -1 -6 10
-11 9 -16 -5 -27 -9 -8 -11 -12 -4 -8 10 5 12 -3 10 -32 -2 -22 -9 -41 -18
-45 -12 -5 -12 -7 2 -7 14 -1 16 -6 10 -23 -5 -13 -8 -92 -7 -175 1 -84 -2
-147 -7 -140 -4 6 -8 7 -8 2 0 -6 6 -19 13 -30 14 -23 15 -44 4 -62 -5 -8 -3
-13 5 -13 9 0 9 -3 -2 -10 -12 -8 -12 -10 -1 -10 8 0 11 -3 8 -7 -4 -3 -1 -13
6 -21 10 -13 9 -15 -8 -9 -19 7 -19 6 -2 -7 9 -7 17 -18 17 -24 0 -6 -8 -16
-17 -22 -17 -10 -17 -10 1 -8 12 2 24 -8 36 -29 9 -18 21 -29 25 -25 5 4 4 0
-1 -8 -13 -22 -14 -40 -2 -40 6 0 8 7 5 14 -4 10 -1 13 9 9 9 -3 13 -13 9 -27
-5 -15 -4 -17 3 -7 13 19 56 -4 48 -26 -5 -13 -4 -14 8 -4 9 7 21 9 28 5 7 -5
24 -9 38 -10 14 -1 26 -3 28 -4 1 -1 8 -3 15 -4 6 -1 11 -13 10 -26 l-2 -25
11 23 11 22 20 -27 c10 -16 16 -20 13 -10 -9 26 -13 43 -9 34 3 -4 9 -5 13 -2
5 3 12 0 16 -6 4 -8 3 -9 -4 -5 -8 5 -10 1 -5 -10 4 -11 8 -13 11 -6 2 7 8 10
13 7 5 -4 6 2 2 11 -5 13 -3 15 8 8 18 -11 36 -15 77 -16 22 -1 32 -6 32 -17
1 -12 4 -11 13 5 7 12 20 20 30 18 11 -1 16 1 12 4 -4 4 -12 7 -18 7 -16 0
-20 64 -5 83 10 12 10 14 1 8 -8 -4 -13 -1 -13 9 0 9 4 14 9 10 5 -3 13 -1 16
5 4 6 3 10 -2 9 -20 -4 -24 2 -12 18 10 11 10 14 2 9 -16 -9 -16 -1 -2 26 6
11 7 18 1 14 -5 -3 -9 5 -9 19 0 14 3 23 6 20 4 -2 13 1 21 7 12 8 12 9 -2 4
-19 -6 -34 9 -18 19 5 3 10 12 10 18 0 7 -4 6 -10 -3 -8 -12 -10 -10 -10 10 0
15 6 32 13 39 10 11 10 13 0 7 -8 -5 -13 -1 -13 9 0 9 4 14 9 10 5 -3 13 -1
16 5 4 6 3 10 -2 9 -20 -4 -24 2 -12 18 10 11 10 14 2 9 -16 -9 -16 -1 -2 26
6 11 7 18 1 14 -5 -3 -9 5 -9 19 0 14 3 22 8 20 4 -3 11 0 15 6 4 7 3 9 -4 5
-6 -3 -13 -2 -16 3 -4 5 -2 12 4 16 5 3 10 12 10 18 0 7 -4 6 -10 -3 -8 -12
-10 -10 -10 11 0 14 6 31 13 38 10 11 10 13 0 7 -8 -5 -13 -1 -13 9 0 9 4 14
9 10 5 -3 13 -1 16 5 4 6 3 10 -2 9 -20 -4 -24 2 -12 18 10 11 10 14 2 9 -16
-9 -16 -1 -2 26 6 11 7 18 1 14 -5 -3 -9 5 -9 19 0 14 3 23 6 20 4 -2 13 1 21
7 12 8 12 9 -2 4 -19 -6 -34 9 -18 19 5 3 10 12 10 18 0 7 -4 6 -10 -3 -8 -12
-10 -10 -10 10 0 15 6 32 13 39 10 11 10 13 0 7 -8 -5 -13 -1 -13 9 0 9 4 14
9 10 5 -3 13 -1 16 5 4 6 1 9 -7 8 -13 -3 -15 7 -17 108 -1 40 -2 40 -58 61
-32 12 -57 26 -55 33 1 6 -2 8 -8 5 -13 -8 -211 75 -205 86 3 4 -3 6 -12 4
-10 -1 -30 4 -45 11 -36 19 -35 19 -43 -26z"/>
<path d="M4182 2699 c-13 -5 -29 -6 -35 -2 -7 3 -9 2 -4 -2 4 -5 -37 -27 -90
-50 -54 -23 -119 -52 -145 -64 -26 -11 -49 -21 -52 -21 -3 0 -40 -16 -82 -35
-41 -19 -81 -35 -88 -35 -6 0 -16 -4 -22 -9 -19 -18 -276 -121 -286 -115 -7 4
-8 2 -4 -4 7 -11 3 -14 -26 -16 -7 -1 -19 -7 -26 -14 -8 -7 -18 -10 -23 -7 -5
4 -9 1 -9 -6 0 -6 -8 -9 -20 -6 -11 3 -18 1 -15 -3 7 -11 -54 -32 -68 -23 -5
3 -7 1 -4 -4 4 -6 -17 -20 -51 -34 -31 -12 -82 -34 -112 -47 -30 -14 -61 -25
-67 -25 -7 0 -13 -4 -13 -9 0 -4 -3 -7 -7 -6 -5 1 -24 -5 -43 -15 -53 -25
-120 -47 -120 -39 0 4 -4 2 -8 -4 -9 -16 -65 -24 -189 -31 -64 -3 -103 -1
-103 5 0 5 -12 8 -26 6 -15 -1 -56 7 -93 18 -36 11 -67 20 -69 19 -1 -1 -28
12 -60 28 -31 15 -74 34 -94 40 -21 7 -38 17 -38 23 0 6 -3 9 -6 6 -6 -6 -39
6 -134 49 -30 14 -72 31 -92 39 l-38 13 0 -32 c0 -18 -5 -38 -12 -45 -9 -9 -9
-12 0 -12 7 0 12 -15 12 -36 0 -25 -3 -33 -12 -28 -10 6 -10 4 -2 -7 14 -18
16 -241 2 -233 -6 4 -6 0 0 -12 6 -11 9 -127 8 -284 -1 -146 2 -270 6 -276 5
-6 -11 -2 -34 10 -24 11 -64 30 -90 40 -26 10 -45 23 -41 29 3 6 1 7 -5 3 -7
-4 -56 8 -109 25 -54 18 -100 32 -103 32 -3 -1 -12 2 -20 7 -8 4 -32 10 -52
14 -36 7 -38 5 -38 -19 0 -14 -6 -25 -12 -25 -8 0 -9 -3 -3 -8 16 -11 17 -34
3 -43 -10 -7 -10 -9 1 -9 11 0 9 -5 -5 -22 -15 -19 -16 -20 -1 -9 18 15 24 2
6 -16 -8 -8 -8 -13 0 -17 15 -10 14 -46 -1 -46 -8 0 -9 -3 -3 -8 13 -9 16 -62
4 -62 -5 0 -9 -5 -9 -11 0 -5 4 -8 9 -5 5 3 8 -10 8 -29 -1 -19 -5 -35 -9 -35
-4 0 -8 -5 -8 -11 0 -5 4 -8 9 -5 5 3 8 -10 8 -29 -1 -19 -5 -35 -9 -35 -4 0
-8 -5 -8 -11 0 -5 4 -8 9 -5 5 3 8 -10 8 -29 -1 -19 -5 -35 -9 -35 -4 0 -8 -5
-8 -11 0 -5 4 -8 9 -5 5 3 8 -10 8 -29 -1 -19 -5 -35 -9 -35 -4 0 -8 -5 -8
-11 0 -5 5 -7 10 -4 17 10 11 -27 -8 -49 -15 -18 -15 -19 0 -8 15 12 17 10 18
-20 0 -18 1 -41 1 -50 0 -10 5 -18 11 -18 6 0 8 -13 6 -28 -3 -19 0 -29 9 -29
6 0 9 5 6 11 -3 6 -2 8 2 3 12 -11 17 -50 6 -42 -5 3 -12 1 -15 -4 -7 -10 13
-9 29 1 6 3 23 -5 38 -18 16 -13 24 -24 20 -24 -5 0 -14 5 -21 12 -9 9 -12 9
-12 0 0 -7 14 -15 30 -19 17 -3 30 -10 30 -15 0 -6 7 -5 15 2 11 9 15 9 15 1
0 -7 4 -10 9 -6 5 3 12 1 16 -4 3 -6 -3 -8 -13 -6 -10 2 -25 -1 -33 -7 -11 -8
-10 -9 4 -4 10 3 17 0 17 -7 0 -9 3 -8 9 1 4 8 11 13 15 13 3 -1 7 -1 9 0 1 0
18 2 38 3 20 2 42 7 49 11 8 5 11 4 6 -3 -11 -18 28 -19 54 -1 14 9 29 17 35
17 5 0 11 6 13 14 2 9 0 8 -7 -2 -6 -8 -11 -10 -11 -4 0 18 12 24 26 13 9 -8
11 -5 7 10 -3 12 0 22 6 22 11 2 25 5 39 9 4 1 10 2 13 2 3 -1 6 5 6 13 0 8
-4 12 -9 9 -13 -8 -9 23 5 38 13 14 19 38 20 80 0 21 4 25 20 22 11 -2 16 0
13 4 -4 4 -13 7 -19 7 -15 0 -17 204 -2 224 7 10 7 13 0 9 -7 -4 -10 22 -11
72 0 52 4 77 11 72 5 -3 4 2 -4 11 -9 12 -10 17 -2 17 7 0 9 5 4 13 -13 20
-11 64 3 64 7 0 11 -4 8 -9 -3 -4 6 -8 19 -8 13 0 27 -3 31 -7 4 -5 13 -8 18
-8 6 0 12 -6 14 -13 1 -7 0 -8 -2 -3 -3 5 -17 7 -32 5 -21 -3 -24 -2 -12 6 12
8 9 9 -12 6 -15 -3 -29 1 -31 7 -3 7 -4 2 -4 -10 1 -16 4 -19 13 -12 8 7 14 6
19 -1 4 -6 12 -9 18 -7 7 2 20 0 29 -4 10 -6 19 -5 23 1 4 6 11 8 16 4 5 -3 6
-10 3 -16 -5 -7 -1 -9 9 -5 9 3 24 -2 34 -11 11 -9 12 -12 4 -7 -12 9 -12 7
-1 -12 12 -18 17 -20 29 -10 12 10 14 9 8 -6 -3 -9 -2 -17 4 -17 6 0 8 -4 5
-8 -3 -5 1 -9 9 -9 11 0 12 4 3 14 -6 7 -8 16 -4 20 3 3 6 1 6 -5 0 -7 6 -12
14 -12 8 0 17 -7 20 -16 3 -8 11 -12 17 -8 8 4 9 3 5 -5 -6 -9 -11 -9 -21 -1
-10 8 -15 8 -20 0 -4 -6 -4 -14 -1 -17 3 -4 6 0 6 7 0 10 3 11 11 3 6 -6 18
-9 27 -6 11 5 13 3 7 -8 -7 -11 -5 -11 10 1 11 9 16 10 11 3 -4 -8 -1 -13 8
-13 9 0 16 -4 16 -10 0 -5 -6 -7 -14 -4 -18 7 -30 -12 -15 -22 8 -4 9 -3 5 4
-9 16 7 15 22 0 14 -14 44 -20 36 -7 -3 5 -10 6 -16 3 -7 -5 -8 -2 -3 6 6 9 4
11 -5 5 -9 -6 -11 -4 -6 4 10 15 49 -16 43 -33 -2 -6 0 -20 5 -31 8 -18 8 -18
4 2 -3 16 1 23 11 23 10 0 13 -6 8 -22 -4 -16 -4 -19 3 -9 6 8 15 10 22 6 10
-6 9 -11 -5 -22 -22 -15 -12 -17 15 -3 15 8 20 6 25 -10 4 -11 10 -18 15 -15
11 7 53 -52 45 -64 -3 -5 0 -13 6 -17 8 -4 9 -3 5 4 -4 7 -2 12 4 12 6 0 8 5
4 12 -4 7 -3 8 5 4 6 -4 9 -11 6 -16 -3 -5 3 -11 14 -15 11 -3 24 -18 29 -34
5 -15 17 -28 25 -28 9 0 14 4 11 9 -5 8 10 12 36 8 16 -2 31 -20 25 -30 -2 -3
6 -7 18 -7 20 -2 20 -1 5 8 -10 6 -18 14 -18 19 0 14 22 8 38 -10 12 -13 13
-13 8 2 -6 21 9 24 17 4 3 -7 0 -20 -6 -27 -10 -11 -9 -11 4 -1 9 6 19 10 23
7 3 -3 2 1 -4 7 -5 7 -10 19 -10 27 1 13 4 12 17 -4 12 -16 14 -16 10 -3 -3
10 -1 20 5 24 7 4 8 3 4 -4 -4 -7 -2 -12 3 -12 6 0 11 5 11 10 0 6 5 10 11 10
5 0 7 -4 4 -10 -3 -5 -1 -10 6 -10 6 0 9 8 6 20 -3 10 -2 18 2 17 12 -4 60 40
53 48 -4 5 -1 5 6 1 7 -5 11 -15 8 -23 -3 -8 -1 -11 5 -8 5 4 7 15 4 25 -7 23
53 70 65 51 5 -9 9 -8 14 4 3 9 11 13 17 9 8 -4 9 -3 5 5 -6 9 -11 9 -21 1
-10 -8 -15 -8 -21 1 -4 8 -3 9 5 5 6 -4 14 0 17 8 3 9 12 16 20 16 8 0 13 3
12 8 -3 6 7 14 15 11 25 -8 35 -5 30 8 -5 12 -7 12 -14 1 -5 -7 -9 -8 -9 -2 0
21 14 24 33 7 11 -10 17 -12 13 -5 -4 7 -1 15 8 18 9 3 16 13 16 21 0 11 -6 8
-20 -8 -10 -13 -19 -19 -20 -12 0 6 14 23 32 38 28 24 33 25 44 11 6 -9 15
-16 19 -16 4 0 2 7 -5 15 -15 18 -4 37 20 33 10 -2 28 6 40 17 18 16 23 17 30
5 7 -11 9 -10 7 7 -1 23 -9 21 -43 -9 -17 -15 -23 -17 -30 -6 -4 7 -4 10 1 6
4 -4 27 9 52 29 34 28 46 33 56 24 9 -10 8 -11 -4 -6 -10 4 -20 1 -24 -5 -4
-7 2 -9 19 -6 15 3 26 0 26 -6 0 -6 3 -9 6 -6 3 4 1 15 -4 25 -9 15 -4 22 25
42 19 12 32 18 29 13 -3 -6 0 -12 6 -15 9 -3 7 -10 -7 -21 -20 -17 -20 -17 1
-7 12 6 24 17 28 26 3 8 11 14 17 13 6 -2 14 3 16 10 3 6 0 12 -7 12 -6 0 -8
-5 -4 -12 5 -7 3 -8 -6 -3 -7 4 -16 2 -21 -6 -6 -11 -9 -11 -9 -1 0 18 45 36
67 27 31 -14 42 -13 36 1 -3 9 2 12 17 9 16 -3 24 1 27 15 3 11 9 18 13 15 4
-3 14 3 21 13 12 15 12 16 -2 5 -9 -7 -19 -10 -23 -6 -4 4 -9 -3 -13 -15 -5
-19 -8 -20 -21 -10 -9 7 -13 8 -9 2 3 -6 0 -11 -8 -11 -8 0 -15 4 -15 9 0 7
15 12 33 9 4 0 7 3 7 8 0 20 55 29 84 14 15 -8 30 -12 34 -9 3 3 0 6 -7 6 -7
0 -10 4 -6 9 3 5 0 13 -6 17 -8 4 -9 3 -5 -4 4 -7 2 -12 -4 -12 -7 0 -10 6 -7
13 2 6 8 12 13 12 5 0 15 4 23 9 10 7 12 3 6 -15 -4 -15 -3 -19 2 -12 5 7 20
14 34 15 14 1 26 8 26 15 0 9 -5 9 -20 2 -10 -6 -21 -8 -25 -5 -8 9 0 14 28
18 14 1 28 8 33 13 4 6 14 2 23 -10 16 -20 16 -20 12 1 -3 11 0 21 6 21 21 1
41 8 49 18 5 6 6 2 3 -8 -3 -11 -2 -16 4 -12 6 3 10 0 10 -7 0 -7 9 2 20 20
11 18 25 30 30 27 14 -9 1 -27 -13 -19 -7 4 -9 4 -5 -1 4 -4 2 -15 -4 -24 -7
-9 0 -5 15 8 26 24 27 24 49 5 13 -10 20 -15 16 -10 -12 14 11 36 30 29 9 -3
14 -3 11 1 -9 10 -50 16 -44 6 9 -15 -9 -19 -23 -4 -11 12 -10 14 5 15 41 4
67 -1 76 -13 6 -9 7 -8 3 4 -7 22 10 33 18 12 6 -17 26 -10 26 9 0 7 -4 6 -10
-3 -8 -13 -10 -12 -10 3 0 13 6 16 27 13 15 -3 32 -1 39 5 13 10 29 -15 19
-31 -3 -5 -1 -12 5 -15 6 -4 10 -3 9 2 -4 22 3 30 23 29 11 0 23 6 25 14 3 9
1 11 -4 5 -11 -14 -33 -17 -33 -5 0 10 5 11 58 14 15 1 33 5 41 10 10 6 12 5
9 -5 -3 -8 -14 -13 -24 -12 -18 1 -18 1 -2 -11 10 -7 17 -15 15 -17 -1 -2 0
-3 3 -1 3 2 5 9 5 15 0 7 11 11 23 9 21 -2 22 -1 8 14 -24 24 -19 28 12 9 15
-10 21 -12 15 -4 -17 17 -17 37 -1 21 16 -16 25 -15 32 4 5 14 4 15 -9 4 -8
-7 -15 -9 -14 -4 0 5 20 25 43 44 24 19 41 38 39 43 -2 4 1 7 7 7 6 0 8 5 5
10 -3 6 0 13 8 16 9 3 13 13 9 26 -4 16 -2 19 9 13 12 -8 12 -6 0 8 -7 9 -10
17 -5 17 5 0 10 24 11 53 4 75 5 78 20 73 8 -3 11 -1 8 4 -3 6 -13 10 -21 10
-11 0 -12 5 -6 18 5 9 8 40 8 67 -1 33 4 55 14 63 13 12 13 13 -2 8 -14 -4
-17 1 -15 24 1 17 7 30 12 30 7 0 7 3 0 8 -13 9 -17 74 -4 67 5 -4 9 -1 9 4 0
6 -5 11 -11 11 -5 0 -9 8 -8 18 1 9 0 19 -1 22 -6 16 -5 48 1 44 4 -2 11 0 14
6 4 6 1 9 -7 8 -9 -2 -13 8 -13 30 0 17 -4 32 -9 32 -5 0 -7 3 -4 6 4 3 2 19
-2 35 -5 16 -5 29 -1 29 3 0 7 9 7 19 0 11 -4 17 -8 15 -13 -8 -9 11 5 25 10
11 10 13 0 7 -7 -4 -13 -4 -14 1 0 4 -2 18 -5 31 -2 13 0 21 5 17 5 -3 13 -1
16 5 4 6 3 10 -2 9 -27 -5 -33 7 -37 79 0 12 -4 22 -8 22 -4 0 -8 8 -10 19 -2
15 -7 17 -26 10z m-867 -1349 c-3 -5 -1 -10 4 -10 6 0 11 -5 11 -11 0 -8 -5
-8 -15 1 -13 11 -12 30 1 30 3 0 2 -4 -1 -10z m-842 -463 c4 3 7 4 7 1 0 -3
-6 -11 -14 -17 -11 -9 -15 -7 -19 9 -4 16 -2 19 7 11 7 -6 16 -8 19 -4z m-683
-201 c0 -3 -4 -8 -10 -11 -5 -3 -10 -1 -10 4 0 6 5 11 10 11 6 0 10 -2 10 -4z
m-90 -70 c0 -2 -11 -11 -24 -20 -18 -11 -27 -13 -32 -4 -4 6 -3 8 3 5 6 -4 16
0 23 8 11 14 30 21 30 11z"/>
<path d="M3005 2680 c-3 -6 1 -7 9 -4 18 7 21 14 7 14 -6 0 -13 -4 -16 -10z"/>
<path d="M2223 2655 c0 -8 4 -12 9 -9 5 3 6 10 3 15 -9 13 -12 11 -12 -6z"/>
<path d="M2965 2660 c-3 -6 1 -7 9 -4 18 7 21 14 7 14 -6 0 -13 -4 -16 -10z"/>
<path d="M2265 2641 c-6 -10 11 -24 33 -27 10 -2 8 3 -4 17 -20 22 -21 22 -29
10z"/>
<path d="M2225 2620 c-3 -6 1 -7 9 -4 18 7 21 14 7 14 -6 0 -13 -4 -16 -10z"/>
<path d="M2916 2618 c3 -5 10 -6 15 -3 13 9 11 12 -6 12 -8 0 -12 -4 -9 -9z"/>
<path d="M2359 2605 c5 -11 20 -21 33 -22 13 0 17 1 11 4 -7 2 -15 3 -17 1 -3
-2 -12 6 -21 17 -16 20 -16 20 -6 0z"/>
<path d="M2790 2606 c0 -2 7 -7 16 -10 8 -3 12 -2 9 4 -6 10 -25 14 -25 6z"/>
<path d="M2725 2589 c-4 -6 -4 -13 -1 -16 3 -4 6 -1 6 6 0 7 5 9 12 5 7 -4 8
-3 4 4 -9 15 -13 15 -21 1z"/>
<path d="M2335 2580 c3 -5 8 -10 11 -10 2 0 4 5 4 10 0 6 -5 10 -11 10 -5 0
-7 -4 -4 -10z"/>
<path d="M2650 2560 c0 -5 5 -10 11 -10 5 0 7 5 4 10 -3 6 -8 10 -11 10 -2 0
-4 -4 -4 -10z"/>
<path d="M2746 2558 c3 -5 10 -6 15 -3 13 9 11 12 -6 12 -8 0 -12 -4 -9 -9z"/>
<path d="M2530 2539 c0 -8 47 -6 55 3 3 2 -9 4 -25 4 -17 0 -30 -3 -30 -7z"/>
<path d="M1350 2440 c0 -5 5 -10 11 -10 5 0 7 5 4 10 -3 6 -8 10 -11 10 -2 0
-4 -4 -4 -10z"/>
<path d="M4270 2401 c0 -6 4 -13 10 -16 6 -3 7 1 4 9 -7 18 -14 21 -14 7z"/>
<path d="M1787 2199 c7 -7 15 -10 18 -7 3 3 -2 9 -12 12 -14 6 -15 5 -6 -5z"/>
<path d="M814 2136 c1 -8 5 -18 8 -22 4 -3 5 1 4 10 -1 8 -5 18 -8 22 -4 3 -5
-1 -4 -10z"/>
<path d="M1801 2044 c0 -11 3 -14 6 -6 3 7 2 16 -1 19 -3 4 -6 -2 -5 -13z"/>
<path d="M1801 1804 c0 -11 3 -14 6 -6 3 7 2 16 -1 19 -3 4 -6 -2 -5 -13z"/>
<path d="M847 1659 c7 -7 15 -10 18 -7 3 3 -2 9 -12 12 -14 6 -15 5 -6 -5z"/>
<path d="M1801 1644 c0 -11 3 -14 6 -6 3 7 2 16 -1 19 -3 4 -6 -2 -5 -13z"/>
<path d="M4200 1625 c-20 -21 -20 -23 -3 -36 15 -10 16 -11 6 0 -9 11 -8 17 4
30 9 9 20 16 24 16 4 0 10 3 13 6 3 3 -1 6 -9 6 -8 0 -24 -10 -35 -22z"/>
<path d="M943 1585 c0 -7 6 -11 14 -8 7 3 13 6 13 8 0 2 -6 5 -13 8 -8 3 -14
-1 -14 -8z"/>
<path d="M1346 1578 c3 -5 10 -6 15 -3 13 9 11 12 -6 12 -8 0 -12 -4 -9 -9z"/>
<path d="M996 1562 c-7 -12 22 -25 36 -16 6 4 14 0 19 -7 7 -12 9 -11 9 1 0
13 1 13 10 0 8 -13 11 -13 22 -1 8 9 9 11 1 7 -6 -3 -14 -2 -17 3 -4 5 -18 8
-34 6 -15 -1 -30 2 -33 7 -4 7 -9 7 -13 0z"/>
<path d="M1016 1518 c3 -5 10 -6 15 -3 13 9 11 12 -6 12 -8 0 -12 -4 -9 -9z"/>
<path d="M1217 1523 c-10 -9 -9 -23 1 -23 5 0 9 7 9 15 0 17 -1 18 -10 8z"/>
<path d="M3900 1520 c0 -5 5 -10 11 -10 5 0 7 5 4 10 -3 6 -8 10 -11 10 -2 0
-4 -4 -4 -10z"/>
<path d="M4033 1515 c0 -8 4 -12 9 -9 4 3 8 9 8 15 0 5 -4 9 -8 9 -5 0 -9 -7
-9 -15z"/>
<path d="M1247 1502 c4 -9 9 -9 18 -2 6 5 15 7 18 3 4 -3 7 -2 7 4 0 6 -11 10
-24 9 -14 0 -22 -6 -19 -14z"/>
<path d="M3993 1493 c0 -9 4 -10 14 -2 7 6 13 12 13 14 0 1 -6 2 -13 2 -8 0
-14 -6 -14 -14z"/>
<path d="M1801 1484 c0 -11 3 -14 6 -6 3 7 2 16 -1 19 -3 4 -6 -2 -5 -13z"/>
<path d="M3896 1487 c3 -10 9 -15 12 -12 3 3 0 11 -7 18 -10 9 -11 8 -5 -6z"/>
<path d="M3630 1455 c-11 -13 -10 -14 4 -9 9 3 16 10 16 15 0 13 -6 11 -20 -6z"/>
<path d="M3740 1466 c0 -2 7 -7 16 -10 8 -3 12 -2 9 4 -6 10 -25 14 -25 6z"/>
<path d="M3576 1434 c-4 -9 -4 -19 -1 -22 2 -3 7 3 11 12 4 9 4 19 1 22 -2 3
-7 -3 -11 -12z"/>
<path d="M3430 1366 c0 -2 7 -7 16 -10 8 -3 12 -2 9 4 -6 10 -25 14 -25 6z"/>
<path d="M1290 1326 c0 -2 7 -7 16 -10 8 -3 12 -2 9 4 -6 10 -25 14 -25 6z"/>
<path d="M3194 1276 c-16 -13 -17 -17 -5 -28 12 -11 13 -11 6 0 -4 8 0 19 11
27 11 8 16 15 13 15 -3 0 -14 -6 -25 -14z"/>
<path d="M1930 1241 c0 -4 11 -8 25 -9 14 -1 25 2 25 6 0 4 -11 8 -25 8 -14 1
-25 -1 -25 -5z"/>
<path d="M2006 1182 c-3 -5 1 -9 9 -9 8 0 12 4 9 9 -3 4 -7 8 -9 8 -2 0 -6 -4
-9 -8z"/>
<path d="M3024 1161 c7 -11 46 -35 46 -28 0 3 -12 12 -26 22 -15 9 -23 12 -20
6z"/>
<path d="M2977 1125 c3 -8 9 -12 14 -9 12 7 11 11 -5 17 -10 4 -13 1 -9 -8z"/>
<path d="M2175 1060 c-3 -6 1 -7 9 -4 18 7 21 14 7 14 -6 0 -13 -4 -16 -10z"/>
<path d="M2273 985 c0 -7 6 -11 14 -8 7 3 13 6 13 8 0 2 -6 5 -13 8 -8 3 -14
-1 -14 -8z"/>
<path d="M2319 988 c-4 -17 -3 -56 2 -52 12 7 17 44 8 50 -5 3 -9 4 -10 2z"/>
<path d="M2776 972 c-3 -6 -1 -14 5 -17 15 -10 25 3 12 16 -7 7 -13 7 -17 1z"/>
<path d="M2343 945 c0 -8 4 -12 9 -9 5 3 6 10 3 15 -9 13 -12 11 -12 -6z"/>
<path d="M2715 910 c-16 -17 -16 -20 -3 -15 9 4 19 13 22 21 7 19 2 18 -19 -6z"/>
<path d="M2775 921 c-3 -5 -2 -12 3 -15 5 -3 9 1 9 9 0 17 -3 19 -12 6z"/>
<path d="M2390 900 c0 -6 4 -9 9 -6 5 4 12 1 14 -4 3 -6 4 -5 3 2 -3 15 -26
23 -26 8z"/>
<path d="M1835 880 c-3 -5 -1 -10 4 -10 6 0 11 5 11 10 0 6 -2 10 -4 10 -3 0
-8 -4 -11 -10z"/>
<path d="M2511 844 c0 -11 3 -14 6 -6 3 7 2 16 -1 19 -3 4 -6 -2 -5 -13z"/>
<path d="M1296 802 c-3 -5 1 -9 9 -9 8 0 12 4 9 9 -3 4 -7 8 -9 8 -2 0 -6 -4
-9 -8z"/>
<path d="M1390 616 c0 -2 8 -10 18 -17 15 -13 16 -12 3 4 -13 16 -21 21 -21
13z"/>
<path d="M1440 580 c-9 -6 -10 -10 -3 -10 6 0 15 5 18 10 8 12 4 12 -15 0z"/>
<path d="M1696 582 c-3 -5 1 -9 9 -9 8 0 12 4 9 9 -3 4 -7 8 -9 8 -2 0 -6 -4
-9 -8z"/>
<path d="M1574 569 c-3 -5 -2 -9 3 -8 4 1 10 0 13 -1 19 -7 40 -7 40 1 0 5 -3
9 -7 10 -5 0 -16 2 -25 4 -10 2 -21 -1 -24 -6z"/>
<path d="M1540 566 c0 -2 7 -9 15 -16 13 -11 14 -10 9 4 -5 14 -24 23 -24 12z"/>
</g>
</svg>
