<?xml version="1.0"?><svg version="1.2" baseProfile="tiny-ps" viewBox="0 0 300 300" xmlns="http://www.w3.org/2000/svg" xmlns:xlink="http://www.w3.org/1999/xlink"><title>Open Almond Studios</title><g><g fill="#fafbfc" transform="matrix(.1 0 0 -.1 0 300)"><path d="M0 1500V0h3000v3000H0V1500z"/></g><g fill="#bbc3cc" transform="matrix(.1 0 0 -.1 0 300)"><path d="M0 1500V0h3000v3000H0V1500zm1725 1285c168-27 341-97 497-201l98-65 88-87c109-108 176-198 241-323l51-97 34-103c18-57 40-135 47-174l14-70v-330l-18-85c-26-122-61-221-118-335l-50-100-63-85-64-85-83-80c-180-172-391-283-639-337l-95-21-160-1h-160l-85 17c-180 36-340 101-492 203l-98 65-83 82C480 680 413 771 346 900l-54 105-31 97c-17 53-34 116-37 138l-7 42 23-4 22-3 23-90c89-352 341-658 670-814 107-51 182-76 305-101l103-21h263l64 10c280 45 533 178 724 382l75 80 55 82c127 192 194 391 212 623l7 90-13 105c-27 240-98 429-229 614l-56 79-82 83-83 82-100 67-101 67-92 39-92 40-115 31-115 30h-370l-115-30-115-31-90-39-90-39-85-55c-121-79-202-151-284-250-90-110-159-227-208-350l-38-96-22-117-23-116h-38l6 68 7 69 31 104c38 130 91 241 171 360l62 93 70 74 71 74 95 72 96 72 104 52c120 58 229 95 345 116l80 14 145 1 145 1 90-15zm-600-960c-54-67-77-111-100-190l-17-59 4-100 5-101 36-79 37-78 69-68 69-68-67 23c-177 61-379 183-503 303l-48 46v50l53 51c72 70 215 183 280 223 52 31 203 102 220 102 4 0-13-25-38-55zm816 16 86-38 91-62c110-75 260-203 285-241l18-29-68-65c-38-35-102-90-143-121l-75-56-120-59-120-59-75-20-75-20 25 16c14 9 51 42 82 74l56 57 22 43c13 24 31 68 41 98l19 54v173l-16 55c-22 74-46 119-99 184l-45 55h12c7 0 52-18 99-39zm-583-101 32-20v-79l-26-20-27-21h-48l-24 25-25 24v28c1 34 18 59 51 72 32 13 30 13 67-9zm342-374v-24l-17-6-17-7-13 16-12 17 6 14 5 14h48v-24z"/></g><g fill="#c57331" transform="matrix(.1 0 0 -.1 0 300)"><path d="M0 1500V0h3000v3000H0V1500zm1690 1295c560-86 996-510 1096-1065l17-95v-270l-18-95c-68-357-264-654-566-856l-97-64-89-39c-113-49-202-76-323-97l-95-16-165 5-165 6-80 20c-180 45-333 115-478 219l-78 56-87 90-88 91-51 75c-58 86-115 196-150 289-22 59-65 222-60 227 1 1 14 5 28 9l26 6 7-43c4-24 23-90 42-148l35-105 40-75c23-41 66-110 97-153l56-78 90-87 91-88 72-47c39-26 118-70 175-97l103-49 93-25c52-14 140-30 195-37l102-12 102 7c306 18 576 134 792 341l84 80 59 78c107 144 174 288 219 469l23 93 1 175v175l-14 70c-33 167-97 321-199 475l-56 85-96 95-95 95-80 53c-150 99-294 159-470 194l-100 20h-135l-135-1-85-15c-167-30-334-98-485-198l-80-52-100-101-100-100-50-75c-97-146-167-315-195-470-6-36-13-75-16-87l-4-23h-50v20c0 36 30 172 56 255 145 462 557 813 1044 890l85 13 105 1 105 1 95-15zm-450-873c-14-9-47-38-75-64l-50-46-34-57-34-56-18-67-19-67v-51c0-76 17-151 50-221l29-62 48-52c26-29 66-65 87-81 48-35 37-35-56-2-207 74-478 247-564 359l-27 36 34 35c57 60 233 209 298 254 72 49 182 102 278 135 81 28 85 29 53 7zm598-11c116-38 173-67 301-154l104-71 105-95 105-95-81-77c-105-102-223-187-341-248l-96-49-98-31c-121-39-132-39-75-1 25 16 68 54 95 83l51 54 26 51c14 28 33 77 41 109l15 57v53c0 73-17 148-51 219l-29 62-47 53c-27 29-68 65-92 81-57 35-45 35 67-1zm-463-177 27-25-5-37-6-37-22-17-21-18h-66l-23 19-23 18 1 38 1 37 23 24 22 24h64l28-26zm325-349 12-14-7-21-7-21-26 3-27 3-3 18-4 18 12 14c16 19 34 19 50 0z"/></g><g fill="#2881c2" transform="matrix(.1 0 0 -.1 0 300)"><path d="M0 1500V0h3000v3000H0V1500zm1690 1295c560-86 996-510 1096-1065l17-95v-270l-18-95c-68-357-264-654-566-856l-97-64-89-39c-113-49-202-76-323-97l-95-16-165 5-165 6-80 20c-180 45-333 115-478 219l-78 56-87 90-88 91-51 75c-58 86-115 196-150 289-22 59-65 222-60 227 1 1 14 5 28 9l26 6 7-43c4-24 23-90 42-148l35-105 40-75c23-41 66-110 97-153l56-78 90-87 91-88 72-47c39-26 118-70 175-97l103-49 93-25c52-14 140-30 195-37l102-12 102 7c306 18 576 134 792 341l84 80 59 78c107 144 174 288 219 469l23 93 1 175v175l-14 70c-33 167-97 321-199 475l-56 85-96 95-95 95-80 53c-150 99-294 159-470 194l-100 20h-135l-135-1-85-15c-167-30-334-98-485-198l-80-52-100-101-100-100-50-75c-97-146-167-315-195-470-6-36-13-75-16-87l-4-23h-50v20c0 36 30 172 56 255 145 462 557 813 1044 890l85 13 105 1 105 1 95-15zm-61-425 83-11 81-26c84-26 199-79 278-128 81-51 227-175 321-274l93-98 50-74c27-41 67-108 87-149l38-75v-35l-1-35-38-91-38-92-58-88-59-89-96-96-95-96-95-70-95-71-83-41c-96-48-159-72-261-100l-74-20-86-7-86-6-97 11-97 11-103 34c-57 18-138 50-181 71l-78 37-78 58c-190 141-348 322-470 540-23 41-48 81-55 88l-14 14-43-29-43-28H128l-28 32-29 32-12 41c-7 22-10 42-7 45s28-6 55-21l51-26 39-5 40-5 55 16 55 16 33 62c80 155 172 278 300 407l92 92 92 63c110 77 201 123 323 165l93 32 87 13c111 18 158 19 262 6zm-309-349c-104-23-250-78-333-127-95-55-241-163-357-263l-105-91-58-29-57-30 72-35 73-36 80-70c44-39 130-105 190-145l110-74 88-41 88-41 95-25c53-13 144-29 204-36l109-12 118 18 118 17 88 30c190 63 362 164 517 304 94 85 154 130 196 145l27 11-44 28c-24 15-98 74-164 130-66 57-170 136-230 176l-110 74-91 40c-50 22-133 52-185 67l-94 26-130 4-130 4-85-19zm-41-75c-2-2-31-24-65-49l-60-44-36-49c-51-70-76-124-94-201l-16-68 7-69 7-70 23-63c13-35 38-83 54-107 34-49 111-120 156-144l30-15-11-4c-17-6-181 55-274 102-47 24-128 72-180 106l-94 63-73 69c-40 38-73 75-73 82 0 21 198 204 296 274l89 64 80 38c81 38 249 99 234 85zm543-26c120-40 219-90 342-176l99-69 96-93 96-92-75-70c-107-101-227-190-328-243l-88-46-106-36c-58-19-116-35-128-35h-23l59 38 60 39 41 48c23 27 54 73 68 103l27 54 15 75 15 75-11 76-11 77-35 72-36 73-48 49c-27 28-70 64-97 80-60 39-49 39 68 1zm-447-186 27-25-5-37-6-37-22-17-21-18h-66l-23 19-23 18 1 38 1 37 23 24 22 24h64l28-26zm325-349 12-14-7-21-7-21-26 3-27 3-3 18-4 18 12 14c16 19 34 19 50 0z"/></g><g fill="#073668" transform="matrix(.1 0 0 -.1 0 300)"><path d="M0 1500V0h3000v3000H0V1500zm1773 1286c164-38 336-113 476-209l76-52 100-100 100-100 56-85c101-152 155-277 195-450l24-105 6-125 7-125-12-88c-76-568-484-1009-1044-1128l-102-22-150-1h-150l-89 17c-49 10-125 29-169 43-434 137-772 503-871 943l-17 74 13 8c7 5 21 9 30 9h17l11-56c43-206 159-425 311-588l71-76 87-65 86-65 110-54 110-55 90-25c50-14 119-30 155-37l65-12h270l87 17c173 33 334 99 483 198l80 53 95 95 96 95 56 85c133 202 199 395 214 630l7 95-12 105-12 105-25 92c-59 222-168 407-337 573l-72 71-85 58c-160 110-302 168-489 202l-104 19h-234l-89-15c-117-21-180-40-288-86-331-142-576-409-691-753l-36-106-11-79-12-80-13-5c-7-3-20-3-28 0l-15 6v28c0 16 7 62 15 102 35 167 101 323 201 475l55 82 76 81 76 81 86 65 86 64 105 54c132 68 228 102 355 126l100 19 175-4 175-4 68-15zm-144-416 83-11 81-26c84-26 199-79 278-128 81-51 227-175 321-274l93-98 50-74c27-41 67-108 87-149l38-75v-35l-1-35-38-91-38-92-58-88-59-89-96-96-95-96-95-70-95-71-83-41c-96-48-159-72-261-100l-74-20-86-7-86-6-97 11-97 11-103 34c-57 18-138 50-181 71l-78 37-78 58c-190 141-348 322-470 540-23 41-48 81-55 88l-14 14-43-29-43-28H128l-28 32-29 32-12 41c-7 22-10 42-7 45s28-6 55-21l51-26 39-5 40-5 55 16 55 16 33 62c80 155 172 278 300 407l92 92 92 63c110 77 201 123 323 165l93 32 87 13c111 18 158 19 262 6zm-309-349c-104-23-250-78-333-127-95-55-241-163-357-263l-105-91-58-29-57-30 72-35 73-36 80-70c44-39 130-105 190-145l110-74 88-41 88-41 95-25c53-13 144-29 204-36l109-12 118 18 118 17 88 30c190 63 362 164 517 304 94 85 154 130 196 145l27 11-44 28c-24 15-98 74-164 130-66 57-170 136-230 176l-110 74-91 40c-50 22-133 52-185 67l-94 26-130 4-130 4-85-19zm-41-75c-2-2-31-24-65-49l-60-44-36-49c-51-70-76-124-94-201l-16-68 7-69 7-70 23-63c13-35 38-83 54-107 34-49 111-120 156-144l30-15-11-4c-17-6-181 55-274 102-47 24-128 72-180 106l-94 63-73 69c-40 38-73 75-73 82 0 21 198 204 296 274l89 64 80 38c81 38 249 99 234 85zm543-26c120-40 219-90 342-176l99-69 96-93 96-92-75-70c-107-101-227-190-328-243l-88-46-106-36c-58-19-116-35-128-35h-23l59 38 60 39 41 48c23 27 54 73 68 103l27 54 15 75 15 75-11 76-11 77-35 72-36 73-48 49c-27 28-70 64-97 80-60 39-49 39 68 1zm-201-6c70-20 136-63 194-125l46-50 24-52 24-52 11-70 11-69-6-41c-4-22-14-63-22-90l-15-51-42-59-41-60-64-42-63-43-55-16-56-16-91 4-91 4-68 31-67 32-53 53-53 53-27 55-27 55-11 60-11 60 6 62c8 80 27 130 72 199l37 56 55 41 55 41 66 23 66 22 71 1h70l55-16zm-169-218-42-11-18-35-17-35-32-14-33-15-6-33c-4-19-4-54-1-79l5-44 25-39 26-39 56-27 56-28 47 6 48 6 32 18c17 10 32 21 32 25s14 23 31 43l32 36 4 44c3 24 3 59-1 78l-6 35-40 45-40 46-33 9c-17 6-43 12-57 15l-25 5-43-12z"/></g><g fill="#422114" transform="matrix(.1 0 0 -.1 0 300)"><path d="M1323 2410c-272-55-511-191-721-411-83-87-193-238-249-340l-48-89-25-7c-14-4-49-7-79-7l-53 2-27 21c-14 12-36 26-48 32l-22 12-25-7-26-6v-53l1-52 22-54 22-54 27-20 27-20 44-7 45-6 43 11c24 7 50 14 58 16l14 4 59-95c74-117 143-203 263-329l93-96 81-59c109-78 215-138 325-181l91-37 73-14c41-8 125-17 186-20l113-7 99 18 99 18 90 34c112 44 173 74 250 126 149 100 339 283 437 420 28 40 72 117 99 173l49 101 6 44 6 44-26 64-26 65-87 130-87 131-121 120c-226 223-417 334-662 384l-101 21-99-1-98-1-92-18zm306-40 83-11 81-26c84-26 199-79 278-128 81-51 227-175 321-274l93-98 50-74c27-41 67-108 87-149l38-75v-35l-1-35-38-91-38-92-58-88-59-89-96-96-95-96-95-70-95-71-83-41c-96-48-159-72-261-100l-74-20-86-7-86-6-97 11-97 11-103 34c-57 18-138 50-181 71l-78 37-78 58c-190 141-348 322-470 540-23 41-48 81-55 88l-14 14-43-29-43-28H128l-28 32-29 32-12 41c-7 22-10 42-7 45s28-6 55-21l51-26 39-5 40-5 55 16 55 16 33 62c80 155 172 278 300 407l92 92 92 63c110 77 201 123 323 165l93 32 87 13c111 18 158 19 262 6zm-309-349c-104-23-250-78-333-127-95-55-241-163-357-263l-105-91-58-29-57-30 72-35 73-36 80-70c44-39 130-105 190-145l110-74 88-41 88-41 95-25c53-13 144-29 204-36l109-12 118 18 118 17 88 30c190 63 362 164 517 304 94 85 154 130 196 145l27 11-44 28c-24 15-98 74-164 130-66 57-170 136-230 176l-110 74-91 40c-50 22-133 52-185 67l-94 26-130 4-130 4-85-19zm-41-75c-2-2-31-24-65-49l-60-44-36-49c-51-70-76-124-94-201l-16-68 7-69 7-70 23-63c13-35 38-83 54-107 34-49 111-120 156-144l30-15-11-4c-17-6-181 55-274 102-47 24-128 72-180 106l-94 63-73 69c-40 38-73 75-73 82 0 21 198 204 296 274l89 64 80 38c81 38 249 99 234 85zm543-26c120-40 219-90 342-176l99-69 96-93 96-92-75-70c-107-101-227-190-328-243l-88-46-106-36c-58-19-116-35-128-35h-23l59 38 60 39 41 48c23 27 54 73 68 103l27 54 15 75 15 75-11 76-11 77-35 72-36 73-48 49c-27 28-70 64-97 80-60 39-49 39 68 1zm-189 0 65-20 59-43c67-50 104-96 139-172l25-55 11-65 11-65-11-64-10-63-27-57-26-56-51-55-50-55-72-35-72-36-65-9-66-9-54 8c-106 18-192 64-265 143l-40 44-28 57-28 57-11 75-11 75 13 63c15 74 50 146 98 205l36 44 52 35 53 35 59 18 58 19h71l72 1 65-20zm-210-242c-13-6-23-16-23-21 0-6-19-27-41-48l-41-38-5-46-6-45 17-45 17-44 35-30 34-30 41-11 41-11 37 6c53 9 91 35 126 85l30 43v123l-28 42-27 42-40 20-39 20-53-1h-53l-22-11z"/></g></g></svg>