<svg xmlns="http://www.w3.org/2000/svg" version="1.1" xmlns:xlink="http://www.w3.org/1999/xlink" width="4625" height="4625"><svg fill-rule="evenodd" version="1.2" viewBox="0 0 4625 4625" xml:space="preserve" baseProfile="tiny-ps" xmlns="http://www.w3.org/2000/svg">
  <title>bimi-svg-tiny-12-ps</title>
  <g fill-rule="nonzero" stroke-width="1.2767">
    <path d="m2344.6 377.87c-991.51 0-1823 750.63-1924.1 1737 0 0 16.388 13.813 41.59 13.694 25.202-0.1187 38.411-5.4962 38.411-5.4962 96.938-946 893.1-1664.7 1844.1-1664.7 1024.3 0 1853.7 829.45 1853.7 1853.7s-829.46 1853.7-1853.7 1853.7c-903.14 0-1674.4-650.22-1827-1540.4l-79.265 19.366c159.19 928.22 964.53 1601.4 1906.3 1601.4 1067.7 0 1934.1-866.42 1934.1-1934.1 0-1067.7-866.42-1934.1-1934.1-1934.1z" fill="#2e99dc"></path>
    <path d="m2498.1 3028.5c146.7-32.58 301.28-62.712 432.91-109.97 91.143-33.795 281.34-127.1 359.86-176.54 89.371-56.272 196.59-134.74 265.26-194.12 94.257-81.509 237.99-215.71 237.99-222.2 0-13.144-215.23-214-311.15-290.37-65.941-52.5-216.68-158.13-300.33-210.45-90.558-56.644-232.44-118.11-359.86-155.9-167.31-54.824-350.35-92.196-487.68-92.73-105.51-0.084-120.48 1.1465-194.81 16.065-184.35 40.562-381.25 106.61-545.42 187.89-111.01 55.675-229.29 138.29-392.8 274.34-90.662 75.444-286.8 265.99-286.8 278.63 0 9.7553 129.91 139.85 202.93 203.21 289.5 230.4 582.98 377.31 909.11 460.29 167.07 43.312 322.16 53.807 470.79 31.855z" fill="#fff"></path>
    <path d="m2398.6 1017.3c-25.67-0.5286-51.391-0.3281-77.186 0.6026-25.796 0.9307-51.665 2.5892-77.602 4.9766-25.938 2.3875-51.954 5.5001-78.049 9.3405-26.095 3.8403-52.27 8.4122-78.537 13.704-26.267 5.292-52.622 11.308-79.078 18.048-33.985 8.6574-70.519 19.529-108.04 32.011-37.525 12.482-76.045 26.571-114 41.642-37.953 15.073-75.343 31.129-110.61 47.555-35.269 16.426-68.413 33.225-97.883 49.768-20.661 11.598-45.368 26.566-71.805 43.337-26.437 16.771-54.602 35.339-82.205 54.142-27.602 18.802-54.642 37.842-78.797 55.534-24.155 17.693-45.433 34.041-61.529 47.482-32.106 26.81-63.784 54.803-94.892 83.794-31.107 28.992-61.633 58.987-91.442 89.78-29.809 30.793-58.891 62.386-87.099 94.6-28.208 32.214-55.545 65.045-81.851 98.299-26.308 33.255-51.594 66.93-75.701 100.84-24.106 33.914-47.032 68.073-68.636 102.27-21.603 34.194-41.876 68.433-60.677 102.53s-36.128 68.041-51.824 101.65c-6.87 14.712-12.347 26.046-17.621 35.066-5.2741 9.02-10.345 15.721-16.375 21.174-6.0286 5.4541-13.019 9.6596-22.151 13.674-9.1323 4.0128-20.407 7.8314-34.993 12.53-17.065 5.4962-45.124 11.571-72.719 16.27-27.595 4.6996-54.724 8.0318-69.934 8.0318-12.439 0-27.806-2.2649-44.718-6.275-16.913-4.0102-35.369-9.7733-53.996-16.759-18.627-6.9849-37.422-15.199-55.005-24.125-17.583-8.9267-33.953-18.563-47.731-28.395-10.943-7.8084-20.021-13.501-26.753-16.853-3.3667-1.6751-6.1435-2.7692-8.2808-3.2416-2.1372-0.4724-3.6271-0.3217-4.4162 0.4673-1.0558 1.0558-1.6929 3.1611-1.9521 6.1295-0.25917 2.9696-0.14044 6.801 0.3013 11.304 0.88859 9.0072 3.096 20.702 6.2444 33.57 3.1484 12.868 7.2415 26.908 11.907 40.603 4.6651 13.695 9.8958 27.047 15.336 38.536 4.2961 9.0748 8.8042 17.58 13.528 25.528 4.7238 7.9476 9.6647 15.338 14.847 22.183 5.1822 6.8444 10.599 13.145 16.27 18.909 5.6712 5.7643 11.596 10.991 17.787 15.7 6.192 4.7085 12.656 8.8961 19.398 12.572 6.7423 3.6756 13.767 6.8406 21.091 9.5064 7.3245 2.6657 14.941 4.8336 22.879 6.515 7.9373 1.6802 16.189 2.8765 24.769 3.5952 15.16 1.2691 30.767 0.7546 46.495-1.4337s31.581-6.0554 47.243-11.482c15.661-5.426 31.126-12.418 46.089-20.863s29.424-18.337 43.056-29.58c7.8684-6.4908 15.977-12.388 22.713-16.665 6.7359-4.2782 12.092-6.9402 14.442-6.9402 1.9789 0 4.1761 0.6346 6.5661 1.8806 2.39 1.2461 4.983 3.1088 7.7611 5.569 5.5575 4.9192 11.866 12.228 18.837 21.809 6.9708 9.5805 14.599 21.427 22.796 35.408 8.1965 13.981 16.961 30.096 26.193 48.22 9.7107 19.063 23.506 43.819 39.576 71.348 16.07 27.527 34.414 57.829 53.217 88.002s38.07 60.212 55.981 87.214c17.911 27.001 34.464 50.969 47.856 68.978 21.151 28.445 48.283 61.961 78.704 97.665 30.42 35.705 64.133 73.592 98.465 110.76 34.332 37.164 69.278 73.608 102.16 106.43 32.887 32.826 63.716 62.03 89.8 84.719 27.76 24.146 57.582 48.668 88.023 72.532 30.441 23.863 61.495 47.074 91.711 68.584 30.216 21.511 59.598 41.323 86.682 58.412s51.87 31.449 72.917 42.048c34.61 17.43 74.727 35.563 117.42 53.331 42.688 17.769 87.95 35.181 132.84 51.191 44.884 16.01 89.393 30.612 130.59 42.765s79.087 21.855 110.72 28.053c16.588 3.2505 34.402 6.1895 53.134 8.8105 18.732 2.6211 38.379 4.9243 58.63 6.8994 40.502 3.9489 83.423 6.5929 126.27 7.8441 42.846 1.2512 85.614 1.1146 125.82-0.4775 20.103-0.7966 39.569-1.9572 58.079-3.4905 18.51-1.5346 36.071-3.4446 52.366-5.735 22.202-3.1216 44.27-6.7359 66.288-10.878 22.018-4.1416 43.988-8.8118 65.975-14.026s43.999-10.971 66.111-17.31c22.113-6.3389 44.322-13.255 66.713-20.77 22.391-7.5148 44.958-15.632 67.784-24.375 22.825-8.7429 45.908-18.113 69.322-28.136 46.827-20.046 94.986-42.701 145.09-68.179 28.542-14.511 52.635-27.125 74.569-39.295s41.705-23.895 61.601-36.656c19.896-12.761 39.919-26.556 62.35-42.838 22.431-16.282 47.266-35.052 76.802-57.789 33.479-25.772 63.705-49.663 91.577-72.46 27.871-22.797 53.392-44.508 77.457-65.934 24.065-21.427 46.67-42.569 68.729-64.23s43.569-43.838 65.425-67.338c26.852-28.87 51.305-56.266 73.965-83.026 22.662-26.759 43.53-52.879 63.233-79.172s38.232-52.76 56.21-80.231c17.976-27.47 35.402-55.944 52.885-86.237 16.06-27.827 33.067-61.125 49.539-96.19 16.472-35.065 32.416-71.901 46.35-106.81 13.933-34.908 25.855-67.888 34.298-95.244 4.2208-13.679 7.576-25.95 9.8702-36.354 2.2956-10.404 3.5327-18.939 3.5327-25.144 0-8.8961-2.5062-21.67-7.1164-37.372-4.6115-15.702-11.332-34.323-19.772-54.922-8.4404-20.597-18.594-43.173-30.079-66.755-11.485-23.582-24.301-48.169-38.047-72.822-13.828-24.798-28.12-49.199-42.9-73.238s-30.054-47.718-45.861-71.087c-15.807-23.369-32.144-46.426-49.051-69.217s-34.388-45.314-52.469-67.617c-18.081-22.303-36.758-44.382-56.085-66.288-19.327-21.905-39.302-43.63-59.949-65.228s-41.972-43.067-64.012-64.448c-22.04-21.381-44.796-42.674-68.303-63.929-29.528-26.699-58.538-52.312-86.569-76.45-28.03-24.136-55.082-46.795-80.688-67.617-25.606-20.822-49.768-39.799-72.023-56.552-22.254-16.753-42.596-31.281-60.574-43.212-25.279-16.777-50.535-32.81-75.774-48.095s-50.467-29.832-75.68-43.628c-25.214-13.796-50.415-26.839-75.618-39.149-25.204-12.31-50.4-23.886-75.607-34.712-25.209-10.826-50.421-20.909-75.649-30.256-25.228-9.3469-50.479-17.96-75.742-25.829-25.264-7.8696-50.542-14.998-75.857-21.393-25.315-6.3963-50.664-12.052-76.044-16.978-25.38-4.9243-50.79-9.1157-76.252-12.572-25.461-3.456-50.974-6.1856-76.532-8.1773-25.557-1.9904-51.164-3.2429-76.834-3.7714zm-40.728 499.58c35.461-0.1966 70.335 0.7801 102.82 2.9403 32.483 2.1602 62.579 5.5077 88.47 10.046 24.755 4.3395 75.769 15.701 126.67 27.803 50.904 12.103 101.7 24.942 125.98 32.261 22.815 6.8764 49.373 16.074 77.799 26.785 28.427 10.712 58.725 22.944 89.01 35.887 30.286 12.943 60.557 26.598 88.948 40.168 28.39 13.57 54.901 27.055 77.643 39.648 16.762 9.2804 42.439 24.96 72.553 44.053s64.664 41.604 99.14 64.531c34.476 22.927 68.877 46.276 98.724 67.057 29.847 20.781 55.141 38.992 71.368 51.648 28.966 22.593 111.79 92.648 184.05 155.68 36.999 32.274 67.944 58.911 94.433 81.115 26.49 22.203 48.519 39.972 67.69 54.526 19.171 14.553 35.485 25.887 50.526 35.212 15.042 9.3251 28.819 16.642 42.92 23.16l39.066 18.058-39.689 14.088c-19.144 6.7934-37.837 15.018-57.363 25.611-19.526 10.594-39.886 23.55-62.381 39.814-22.496 16.263-47.121 35.835-75.172 59.638-28.051 23.803-59.53 51.84-95.723 85.052-30.31 27.814-58.625 53.024-85.738 76.231-27.112 23.206-53.018 44.407-78.496 64.22-25.478 19.813-50.522 38.23-75.93 55.866s-51.178 34.494-78.08 51.171c-20.066 12.438-41.208 24.93-63.13 37.341-21.92 12.411-44.616 24.736-67.773 36.842-46.315 24.212-94.487 47.532-142.05 68.865-47.565 21.332-94.526 40.676-138.4 56.916-21.939 8.1199-43.099 15.47-63.191 21.902-20.092 6.432-39.112 11.949-56.74 16.416-41.309 10.468-91.833 21.381-140.97 30.723-49.137 9.343-96.881 17.109-132.62 21.289-15.121 1.7695-35.896 3.2543-59.347 4.4059-23.452 1.1516-49.588 1.9661-75.451 2.4002-25.865 0.4341-51.449 0.4865-73.809 0.1047-22.36-0.3817-41.493-1.1963-54.433-2.4934-33.036-3.3143-69.719-8.1659-107.88-14.131-38.16-5.9648-77.799-13.04-116.73-20.79-38.932-7.7497-77.158-16.175-112.51-24.842-35.353-8.6676-67.829-17.576-95.254-26.296-25.59-8.1378-52.484-17.949-80.356-29.226-27.872-11.278-56.719-24.024-86.225-38.059-29.507-14.034-59.676-29.352-90.174-45.757-30.497-16.404-61.327-33.902-92.168-52.293-30.842-18.391-61.7-37.672-92.241-57.664s-60.765-40.694-90.361-61.903c-29.595-21.209-58.564-42.928-86.569-64.968s-55.044-44.403-80.812-66.891c-30.554-26.664-75.839-66.538-100.63-88.605-18.508-16.477-36.782-31.555-54.849-45.268-18.067-13.713-35.924-26.056-53.601-37.04-17.677-10.984-35.168-20.609-52.511-28.895-17.342-8.2858-34.536-15.231-51.596-20.852-32.141-10.592-60.554-21.204-63.14-23.574-1.2933-1.1861-1.9585-2.2176-1.2371-3.4803s2.8305-2.7526 7.1164-4.8515c8.5718-4.1991 25.823-10.83 57.955-22.931 13.8-5.1962 28.163-11.79 42.973-19.71s30.07-17.165 45.685-27.669c15.613-10.502 31.585-22.254 47.794-35.202 16.209-12.946 32.661-27.078 49.258-42.328 25.089-23.052 73.19-64.742 125.16-108.82 51.967-44.081 107.8-90.558 148.34-123.17 14.927-12.01 35.89-27.71 60.469-45.436 24.579-17.725 52.77-37.475 82.164-57.601 58.786-40.253 122.36-81.999 171.37-111.98 18.833-11.521 39.204-23.009 60.78-34.349 21.576-11.341 44.366-22.535 68.054-33.466 23.688-10.931 48.269-21.594 73.436-31.887 25.168-10.293 50.923-20.218 76.937-29.643s52.286-18.353 78.516-26.681 52.412-16.052 78.225-23.055c25.814-7.0027 51.269-13.284 76.033-18.733 24.766-5.4491 48.844-10.06 71.93-13.725 30.571-4.8541 64.171-8.5604 98.995-11.096s70.869-3.9067 106.33-4.1046z" fill="#d98339" fill-opacity=".97"></path>
  </g>
  <circle cx="2344.6" cy="2312" r="712.54" fill="#2e99dc" stroke-width="1.2767"></circle>
  <path d="m2382.1 943-2e-3 0.00196c-78.937-0.0383-159.05 3.0657-192.37 9.3203-25.786 4.84-65.642 11.409-88.562 14.607-52.7 7.3526-180.92 37.912-208.37 49.664-11.461 4.9064-27.874 10.785-36.469 13.051-78.153 20.605-221.15 85.662-351.63 159.98-153.34 87.34-202.51 123.66-382.43 282.43-161.78 142.76-362.51 401.85-482.3 622.52-21.774 40.112-42.592 80.315-46.268 89.344-3.6756 9.0289-11.768 21.167-17.984 26.971-28.111 26.248-154.18 35.902-215.95 16.541-42.943-13.463-51.308-18.121-79.836-44.541-47.872-44.335-85.488-53.784-128.64-32.312-29.269 14.564-43.918 36.413-41.029 61.207 8.2948 71.179 43.765 189.41 69.113 230.38 18.865 30.494 47.998 60.355 69.861 71.598 36.033 18.53 95.06 31.418 143.91 31.418 38.309 0 55.311-2.8494 92.988-15.586 25.357-8.5718 51.495-19.126 58.092-23.449 6.5955-4.3217 16.797-7.8554 22.67-7.8554 11.441 0 11.058-0.5548 60.021 86.486 36.331 64.582 138.46 219.71 170.62 259.17 100.12 122.83 174.71 204.86 311.24 342.23 112.16 112.86 130.15 127.27 315.17 252.57 140.73 95.308 424.84 224.7 554.8 252.66 95.732 20.6 140.3 27.532 218.32 33.963 49.882 4.1123 91.88 8.6591 93.332 10.109 1.4516 1.4516 41.517 2.671 89.031 2.6914 89.518 0.054 144.84-5.9817 271.31-29.6 104.43-19.504 107.29-20.228 169.31-42.725 216.17-78.402 240.87-88.787 336.33-141.44 58.744-32.399 78.42-45.608 213.35-143.18 122.69-88.726 313.78-268.94 433.55-408.88 71.783-83.872 166.63-215.05 193.97-268.28 11.771-22.921 30.993-58.087 42.713-78.143 54.362-93.022 111.08-244.75 111.08-297.15 0-49.641-51.71-178.32-109.82-273.28-139.26-227.55-212.66-326.52-341.33-460.28-102.41-106.47-279.12-263.18-363.35-322.23-236.06-165.51-481.06-273.98-691.01-305.95-21.488-3.2722-56.652-9.8152-78.141-14.535-28.61-6.2827-106.37-9.4598-185.3-9.498zm-14.193 74.039c3.8175-8e-3 7.6326 0.0011 11.447 0.0253l0.0019-0.0019c289.12 1.8385 570.46 96.078 854.85 284.82 71.907 47.721 181.74 137.04 299.85 243.83 188.06 170.04 328.01 342.67 438.63 541.05 54.989 98.616 95.016 196.29 95.016 231.87 0 49.637-79.349 248.43-143.59 359.74-69.931 121.17-138.88 213.18-246.29 328.66-87.425 93.995-169.27 166.88-303.19 269.96-118.14 90.944-161.15 118.53-275.32 176.58-200.44 101.91-369.67 158.7-547.29 183.67-130.35 18.325-341.59 12.156-474.3-13.85-126.51-24.791-353.12-105.62-491.56-175.34-84.185-42.394-228.29-144.99-339.33-241.57-104.34-90.756-284.53-285.8-369.13-399.58-53.568-72.038-157.79-239.29-196.63-315.54-36.93-72.496-66.329-112.89-82.152-112.89-4.7008 0-21.417 10.624-37.156 23.606-54.526 44.972-122.24 68.433-182.88 63.359-68.645-5.744-116.2-41.91-150.57-114.51-21.758-45.955-40.284-121.7-31.836-130.14 3.1548-3.1547 17.567 4.0103 39.451 19.627 55.113 39.328 151.69 75.557 201.45 75.557 30.421 0 108.53-13.309 142.65-24.303 58.346-18.793 63.663-23.6 91.141-82.443 125.57-268.91 355.28-559.29 612.12-773.77 64.385-53.765 211.69-154.1 294.34-200.49 117.88-66.172 294.6-136.35 430.54-170.98 121.73-31.009 241.4-46.71 359.74-46.955zm3.252 499.84c-4.4108-0.0121-8.835-0.0071-13.268 0.0176v0.0039c-70.921 0.3958-144.18 5.4924-205.33 15.199-184.68 29.32-433.25 119.37-583.91 211.54-98.023 59.967-254.29 166.98-314 215.02-81.069 65.227-223.32 185.89-273.49 232-66.393 61.001-130.51 104.12-185.71 124.91-64.263 24.2-69.008 26.519-63.836 31.264 2.5853 2.3708 30.999 12.984 63.141 23.574 68.239 22.486 138.52 66.148 212.56 132.05 24.787 22.067 70.073 61.941 100.63 88.606 206.14 179.9 494.18 351.66 698.91 416.76 109.7 34.884 300.23 72.804 432.38 86.058 51.758 5.1911 202.56 2.6596 263.04-4.416 71.473-8.3612 190.97-31.075 273.59-52.012 141.02-35.736 370.76-138.78 531.29-238.28 107.61-66.703 197-136.23 318.24-247.49 144.77-132.85 214.06-182.94 290.64-210.12l39.69-14.088-39.066-18.059c-56.409-26.07-107.58-64.914-255.57-194.01-72.259-63.034-155.09-133.09-184.06-155.68-64.909-50.627-274.74-190.17-341.79-227.29-90.97-50.37-242.13-114.98-333.39-142.49-48.564-14.638-203.15-51.384-252.66-60.064-48.544-8.5101-111.85-12.825-178.01-13.006zm258.97 128.63c61.619 14.092 124.24 31.537 184.72 51.355 122.66 36.381 259.24 95.554 346.42 150.08 80.53 50.37 225.64 152.05 289.12 202.59 92.34 73.518 299.54 266.88 299.54 279.53 0 6.252-138.37 135.44-229.11 213.91-66.108 57.167-169.33 132.7-255.36 186.87-75.585 47.592-258.68 137.41-346.42 169.95-87.622 31.457-185.83 54.996-284.77 76.918 256.11-111.97 435.43-367.67 435.43-664.71 0-298.65-181.25-555.49-439.57-666.49zm-580.05 3.9375c-253.53 113.05-430.58 367.38-430.58 662.55 0 296.52 178.68 551.83 434.07 664.11-1.504-0.3843-2.9915-0.7207-4.498-1.1113-313.95-79.88-596.48-221.31-875.17-443.11-70.286-60.992-195.35-186.24-195.35-195.63 0-12.164 188.82-195.6 276.1-268.22 157.4-130.98 271.26-210.51 378.13-264.1 126.38-62.564 272.91-115.72 417.3-154.49zm294.52 16.26c357.42 0 646.33 288.88 646.33 646.29s-288.91 646.32-646.33 646.32-646.33-288.91-646.33-646.32 288.92-646.29 646.33-646.29zm-0.6035 337.24a309.07 309.07 0 0 0-150.44 39.418 120.63 120.63 0 0 1 0.6152 12.184 120.63 120.63 0 0 1-120.63 120.63 120.63 120.63 0 0 1-6.0059-0.1504 309.07 309.07 0 0 0-32.014 136.99 309.07 309.07 0 0 0 309.07 309.07 309.07 309.07 0 0 0 209.45-81.793 51.49 51.49 0 0 1-4.6973-21.482 51.49 51.49 0 0 1 51.49-51.49 51.49 51.49 0 0 1 10.879 1.1622 309.07 309.07 0 0 0 41.949-155.47 309.07 309.07 0 0 0-309.07-309.07 309.07 309.07 0 0 0-0.5957 0z" fill="#49200d" fill-opacity=".97255" fill-rule="evenodd" stroke-width=".55378"></path>
  <path d="m2072.7 1933.9a120.63 120.63 0 0 0-120.48 120.63 120.63 120.63 0 0 0 120.63 120.63 120.63 120.63 0 0 0 120.63-120.63 120.63 120.63 0 0 0-120.63-120.63 120.63 120.63 0 0 0-0.1562 0zm527.43 532.41a51.49 51.49 0 0 0-51.465 51.49 51.49 51.49 0 0 0 51.488 51.49 51.49 51.49 0 0 0 51.49-51.49 51.49 51.49 0 0 0-51.49-51.49 51.49 51.49 0 0 0-0.0234 0z" fill="#fff" fill-opacity=".97" fill-rule="evenodd" stroke-width="1.2767"></path>
</svg><style>@media (prefers-color-scheme: light) { :root { filter: none; } }
@media (prefers-color-scheme: dark) { :root { filter: none; } }
</style></svg>