<svg width="100" height="100" xmlns="http://www.w3.org/2000/svg" xmlns:svg="http://www.w3.org/2000/svg">
    <defs>
     <linearGradient id="a7e7d890f-267e-4348-886f-350f594f2f58" x1="0" x2="1" y1="0.5" y2="0.5">
      <stop offset="0" stop-color="#1eedc4"/>
      <stop offset="1" stop-color="#1e9eed"/>
     </linearGradient>
     <linearGradient id="b121486f6-a521-4e2f-a3d9-5c8b534b652c" x1="0.28" x2="0.81" y1="0.12" y2="0.81">
      <stop offset="0" stop-color="#1e9eed"/>
      <stop offset="1" stop-color="#090380"/>
     </linearGradient>
     <linearGradient id="c756f81bd-29d5-43c6-aa8f-f84e21dfecfc" x1="0.26" x2="1.13" y1="0.35" y2="1.27">
      <stop offset="0" stop-color="#1e9eed"/>
      <stop offset="1" stop-color="#090380"/>
     </linearGradient>
     <linearGradient id="df3ba3f6f-c034-4b05-9a0f-7c63ac093bf8" x1="0.64" x2="0.32" y1="0.37" y2="0.86">
      <stop offset="0" stop-color="#1eedc4"/>
      <stop offset="1" stop-color="#1e9eed"/>
     </linearGradient>
    </defs>
    <g class="layer">
     <title>Layer 1</title>
     <g id="svg_1">
      <g id="svg_2">
       <path d="m50,89.74a10.5,9.96 0 0 1 -10.5,-9.96c0,-10.33 4.52,-20.29 12.71,-28.09c7.78,-7.41 17.65,-11.65 27.06,-11.65a10.5,9.96 0 1 1 0,19.92c-7.41,0 -18.76,8.88 -18.76,19.83a10.5,9.96 0 0 1 -10.51,9.96l0,-0.01z" fill="url(#a7e7d890f-267e-4348-886f-350f594f2f58)" id="svg_3" opacity="0.8"/>
       <path d="m50,89.74a10.5,9.96 0 0 1 -10.5,-9.96c0,-10.95 -11.36,-19.83 -18.78,-19.83a10.5,9.96 0 0 1 0,-19.92c9.42,0 19.28,4.24 27.06,11.65c8.21,7.85 12.73,17.78 12.73,28.09a10.5,9.96 0 0 1 -10.51,9.96l0,0.01z" fill="url(#b121486f6-a521-4e2f-a3d9-5c8b534b652c)" id="svg_4" opacity="0.8"/>
       <path d="m79.28,59.96c-9.41,0 -19.28,-4.24 -27.06,-11.65c-8.2,-7.81 -12.71,-17.78 -12.71,-28.09a10.5,9.96 0 0 1 21.01,0c0.01,10.95 11.36,19.83 18.77,19.83a10.5,9.96 0 1 1 0,19.92l-0.01,-0.01z" fill="url(#c756f81bd-29d5-43c6-aa8f-f84e21dfecfc)" id="svg_5" opacity="0.8"/>
       <path d="m20.71,59.96a10.5,9.96 0 0 1 0,-19.92c7.41,0 18.78,-8.88 18.78,-19.83a10.5,9.96 0 0 1 21.01,0c0,10.33 -4.52,20.29 -12.72,28.09c-7.77,7.41 -17.64,11.65 -27.06,11.65l-0.01,0.01z" fill="url(#df3ba3f6f-c034-4b05-9a0f-7c63ac093bf8)" id="svg_6" opacity="0.8"/>
      </g>
     </g>
    </g>
   </svg>