<?xml version="1.0" standalone="no"?>
<!DOCTYPE svg PUBLIC "-//W3C//DTD SVG 20010904//EN"
 "http://www.w3.org/TR/2001/REC-SVG-20010904/DTD/svg10.dtd">
<svg version="1.0" xmlns="http://www.w3.org/2000/svg"
 width="2172.000000pt" height="2172.000000pt" viewBox="0 0 2172.000000 2172.000000"
 preserveAspectRatio="xMidYMid meet">
<metadata>
Created by potrace 1.11, written by Peter Selinger 2001-2013
</metadata>
<g transform="translate(0.000000,2172.000000) scale(0.100000,-0.100000)"
fill="#000000" stroke="none">
<path d="M6190 20059 c-1108 -776 -2027 -1420 -2042 -1432 l-27 -22 -2 -4850
c-1 -2667 -1 -6811 0 -9207 l1 -4358 2040 0 2040 0 0 4350 0 4350 4020 0 4020
0 0 1650 0 1650 -4020 0 -4020 0 0 2940 0 2940 4245 0 4245 0 0 1700 0 1700
-4242 0 -4243 0 -2015 -1411z"/>
</g>
</svg>
