<?xml version="1.0" standalone="no"?>
<!DOCTYPE svg PUBLIC "-//W3C//DTD SVG 20010904//EN"
 "http://www.w3.org/TR/2001/REC-SVG-20010904/DTD/svg10.dtd">
<svg version="1.0" xmlns="http://www.w3.org/2000/svg"
 width="329.000000pt" height="329.000000pt" viewBox="0 0 329.000000 329.000000"
 preserveAspectRatio="xMidYMid meet">
<metadata>
Created by potrace 1.14, written by Peter Selinger 2001-2017
</metadata>
<g transform="translate(0.000000,329.000000) scale(0.100000,-0.100000)"
fill="#000000" stroke="none">
<path d="M1488 3285 c-1 -2 -30 -6 -62 -9 -151 -16 -345 -76 -503 -154 -178
-88 -297 -175 -444 -321 -232 -232 -383 -517 -450 -846 -30 -150 -34 -427 -9
-565 33 -178 63 -278 125 -418 192 -436 594 -783 1057 -911 40 -11 84 -22 98
-25 14 -2 36 -7 50 -10 65 -15 107 -18 265 -21 160 -3 220 1 340 25 28 6 60
12 73 15 13 2 32 7 42 10 10 3 28 8 39 10 12 2 74 25 139 50 262 104 490 271
678 497 142 170 294 490 328 693 5 29 9 47 22 110 12 61 11 370 -1 456 -82
545 -408 1000 -890 1241 -95 47 -148 70 -190 84 -212 68 -320 86 -532 90 -94
1 -173 1 -175 -1z"/>
</g>
</svg>
