<?xml version="1.0" encoding="UTF-8" standalone="no"?>
<!-- Created with Inkscape (http://www.inkscape.org/) -->

<svg
   width="228.41116mm"
   height="215.2379mm"
   viewBox="0 0 242.47518 256.8583"
   version="1.1"
   id="svg5"
   inkscape:version="1.1 (c68e22c387, 2021-05-23)"
   sodipodi:docname="Scorpion.svg"
   xmlns:inkscape="http://www.inkscape.org/namespaces/inkscape"
   xmlns:sodipodi="http://sodipodi.sourceforge.net/DTD/sodipodi-0.dtd"
   xmlns="http://www.w3.org/2000/svg"
   xmlns:svg="http://www.w3.org/2000/svg">
  <sodipodi:namedview
     id="namedview7"
     pagecolor="#648484"
     bordercolor="#666666"
     borderopacity="1.0"
     inkscape:pageshadow="2"
     inkscape:pageopacity="0"
     inkscape:pagecheckerboard="0"
     inkscape:document-units="mm"
     showgrid="false"
     inkscape:zoom="0.72337262"
     inkscape:cx="686.36826"
     inkscape:cy="409.19437"
     inkscape:window-width="1920"
     inkscape:window-height="1001"
     inkscape:window-x="-9"
     inkscape:window-y="-9"
     inkscape:window-maximized="1"
     inkscape:current-layer="layer1"
     fit-margin-top="0"
     fit-margin-left="0"
     fit-margin-right="0"
     fit-margin-bottom="0"
     viewbox-width="256"
     viewbox-height="256" />
  <defs
     id="defs2" />
  <g
     inkscape:label="Layer 1"
     inkscape:groupmode="layer"
     id="layer1"
     style="display:inline"
     transform="translate(130.7138,85.856077)">
    <g
       id="g854"
       transform="matrix(1.130322,0,0,1.1973704,8.2516295,17.990726)">
      <path
         style="display:inline;fill:#8dbe2a;stroke-width:0.0846667"
         d="m -38.218693,124.33805 c -1.253668,-0.0792 -2.531838,-0.21273 -3.640667,-0.38042 -1.163396,-0.17596 -3.146222,-0.55859 -3.105523,-0.59929 0.01913,-0.0191 0.468529,0.0415 0.998661,0.13474 2.350685,0.41342 6.51344,0.76817 6.086195,0.51864 -0.06985,-0.0408 -0.618329,-0.25216 -1.218836,-0.4697 -5.802164,-2.10192 -10.995033,-5.24573 -14.89136,-9.0154 -2.659539,-2.57309 -4.111239,-4.50518 -7.395771,-9.84319 -4.078296,-6.628039 -6.391614,-9.676691 -10.057074,-13.253925 -3.09697,-3.022439 -5.41473,-4.705325 -7.008617,-5.088856 -0.525565,-0.126467 -1.304643,-0.115316 -1.695647,0.02426 l -0.314972,0.112438 0.272639,-0.391321 c 0.432043,-0.620116 1.84016,-1.968229 2.439362,-2.33542 0.379892,-0.2328 0.728,-0.554084 1.137663,-1.050011 4.494177,-5.440519 8.621829,-8.961535 11.850947,-10.109225 1.690508,-0.600846 3.58869,-0.510819 4.697222,0.222775 l 0.305673,0.202285 0.173674,-0.264862 c 0.643509,-0.981397 2.626737,-2.989326 4.030931,-4.081145 0.221191,-0.171992 0.400721,-0.336186 0.398954,-0.36488 -0.0018,-0.02869 -0.205599,-0.192608 -0.45296,-0.364261 -1.158225,-0.803707 -8.82917,-6.837248 -12.242967,-9.62964 -3.754454,-3.071029 -7.721864,-6.571843 -8.731393,-7.704505 -0.357818,-0.401464 -0.430363,-0.448302 -0.529387,-0.341825 -0.06311,0.06787 -0.58486,0.656793 -1.159438,1.308726 -0.574578,0.651934 -2.513923,2.652184 -4.309656,4.445 -5.480709,5.471812 -7.950167,7.526037 -9.685847,8.057194 -1.136469,0.347785 -2.75042,0.05162 -4.035125,-0.740453 l -0.590681,-0.364176 v 0.680245 c 0,1.877204 -1.043967,4.967004 -2.999379,8.87719 -2.522848,5.044864 -5.797088,10.21842 -8.212718,12.976725 -1.06878,1.220394 -2.00401,1.840602 -2.77364,1.839349 -0.50768,-8.46e-4 -1.46006,-0.241325 -3.28837,-0.830385 -0.86033,-0.27719 -1.80235,-0.570586 -2.09339,-0.651993 -0.29105,-0.08141 -0.52917,-0.175082 -0.52917,-0.208169 0,-0.06599 1.04469,-0.566522 1.77304,-0.849503 1.55369,-0.603648 3.27544,-0.672169 3.99736,-0.159081 0.12361,0.08785 0.24251,0.159724 0.26423,0.159724 0.0217,0 0.0658,-0.238125 0.0979,-0.529167 0.10489,-0.94979 0.55257,-3.073865 0.89378,-4.240741 0.66028,-2.257993 1.28327,-3.752757 3.32277,-7.972425 0.67522,-1.397 1.65682,-3.47345 2.18133,-4.614334 1.8062,-3.928685 2.56089,-5.289186 3.30883,-5.964902 0.54225,-0.489898 0.94054,-0.635084 1.748125,-0.637235 l 0.696404,-0.0019 -0.09513,-0.232833 c -0.05232,-0.128058 -0.09412,-0.556683 -0.0929,-0.9525 0.0041,-1.342271 0.612337,-2.465967 2.1767,-4.021667 1.05887,-1.053007 2.058577,-1.839188 3.899852,-3.06688 1.647223,-1.098305 4.920146,-3.061361 6.053667,-3.630913 2.419213,-1.21556 5.573323,-2.130112 8.466667,-2.454961 0.62865,-0.07058 1.3335,-0.181856 1.566333,-0.247269 1.094283,-0.30745 2.029143,-0.40756 3.81,-0.407975 5.942709,-0.0014 10.816312,1.558315 15.197667,4.863778 4.21325,3.178641 7.548431,7.766491 9.102902,12.521887 0.175049,0.535517 0.346533,1.00523 0.381068,1.043813 0.03454,0.03858 0.324595,-0.0068 0.644576,-0.100779 0.721809,-0.212064 1.898582,-0.435034 2.295982,-0.435034 h 0.298484 l -0.05022,-0.359833 c -0.07392,-0.529582 -0.91175,-3.399917 -1.574461,-5.393961 -1.530181,-4.604174 -3.037434,-8.120956 -5.426456,-12.661206 -2.252024,-4.279883 -3.257301,-6.468093 -4.103575,-8.932333 -3.239458,-9.432875 -3.097686,-20.27014 0.42144,-32.215667 2.521327,-8.5585385 6.941395,-17.490914 11.231836,-22.698064 0.271933,-0.330036 0.49442,-0.621071 0.49442,-0.646744 0,-0.02567 -0.130683,-0.0712 -0.290407,-0.10116 -0.469722,-0.08812 -1.453667,-0.623034 -1.7346,-0.943005 -2.093468,-2.384328 -0.07841,-8.760665 4.026171,-12.740167 0.505909,-0.490494 1.167486,-1.077684 1.470169,-1.304867 0.302683,-0.227183 0.581592,-0.440059 0.619802,-0.473058 0.0382,-0.033 -0.06584,-0.271518 -0.231224,-0.530043 -1.114078,-1.741591 -1.178086,-4.602929 -0.155999,-6.973684 0.821402,-1.905276 2.530721,-3.813962 4.196106,-4.685541 0.331089,-0.173272 0.394487,-0.242383 0.349538,-0.381 -0.33059,-1.019433 -0.387122,-1.382963 -0.348886,-2.243667 0.08271,-1.862035 0.853313,-3.850436 2.414431,-6.229952 0.871499,-1.328384 1.539477,-2.158075 2.674687,-3.322237 1.072989,-1.100351 1.844006,-1.715121 2.784543,-2.22025 0.367403,-0.197314 0.64323,-0.397709 0.62059,-0.450869 -0.573354,-1.346576 -0.727922,-1.97255 -0.730115,-2.956762 -0.0047,-2.072074 1.064582,-4.280743 3.000545,-6.198263 0.376114,-0.372534 0.959425,-0.865034 1.296246,-1.094445 0.611319,-0.416374 0.612403,-0.417802 0.612403,-0.807711 0,-2.996556 4.300778,-7.102902 10.788946,-10.301193 6.3348362,-3.122709 12.5173486,-4.173342 19.3100537,-3.281478 1.0572496,0.138815 3.4748383,0.591835 3.6125323,0.676937 0.0435,0.02688 -0.209373,0.193802 -0.56195,0.370925 -2.4448516,1.228225 -3.9237073,3.839401 -4.0927697,7.22652 l -0.058479,1.171555 -2.3706667,0.952723 c -3.74257143,1.504063 -6.3589154,2.664485 -10.8373333,4.806661 -1.3038667,0.623682 -2.6662463,1.265564 -3.0275113,1.426404 -0.499067,0.22219 -0.643018,0.322941 -0.599279,0.419435 0.03167,0.06985 0.07385,0.588504 0.09374,1.152563 0.03028,0.858955 0.0058,1.146974 -0.151063,1.772912 -0.782574,3.123747 -3.092052,6.066898 -5.890446,7.50664 -0.415121,0.213577 -0.916694,0.436255 -1.114603,0.494839 -0.197908,0.05858 -0.359833,0.118347 -0.359833,0.132808 0,0.01446 0.17813,0.301656 0.395851,0.638213 0.21772,0.336558 0.521843,0.910654 0.675826,1.275772 0.474692,1.125537 0.569756,1.598403 0.574776,2.85892 0.0039,0.971426 -0.02528,1.237997 -0.194174,1.775864 -0.691905,2.203555 -2.360126,3.919954 -5.101489,5.248816 -0.56515,0.273952 -1.413543,0.622336 -1.885331,0.774187 -0.471789,0.151853 -0.870213,0.284574 -0.885394,0.294938 -0.01518,0.01036 0.151317,0.183764 0.369994,0.385334 0.218677,0.20157 0.637607,0.666468 0.930952,1.03311 1.765173,2.206194 1.858061,4.412947 0.261163,6.204627 -0.930216,1.043678 -2.801527,2.138901 -5.227185,3.059315 l -1.068002,0.405255 0.379137,0.418776 c 0.876707,0.968347 1.67033,2.457335 1.965054,3.686798 0.209246,0.872854 0.229557,2.192118 0.04498,2.920691 -0.395927,1.562822 -1.729148,3.295259 -3.533487,4.591545 l -0.415697,0.298651 0.583167,0.601213 c 0.869332,0.896227 0.877486,0.916914 0.258665,0.656207 -0.474878,-0.200061 -0.637802,-0.223867 -1.506143,-0.22007 -1.06973,0.0047 -1.118176,0.01842 -2.632744,0.746979 -5.46879,2.630677 -12.66538,14.8489526 -15.690097,26.6384303 -1.739823,6.7813597 -2.007506,13.4931827 -0.854261,21.4200907 0.612953,4.213225 2.014068,11.519832 2.841354,14.817243 1.475376,5.880591 3.407681,10.17264 6.39224,14.198507 0.861949,1.162685 1.662396,2.006557 3.593508,3.788435 3.273848,3.020856 5.217583,4.718744 5.730104,5.005358 0.659884,0.369028 2.580149,1.636581 3.469759,2.29036 2.903008,2.133431 5.831958,4.72777 8.389501,7.431066 1.502723,1.588356 1.724906,1.737132 4.296969,2.877253 2.712923,1.202572 4.592489,1.822281 6.6200531,2.182707 1.4409166,0.256133 4.1017275,0.274828 5.4019704,0.03795 C -0.4603826,79.328623 3.3268336,77.416994 6.0064997,74.822502 9.1457789,71.783011 10.066351,68.615403 8.5582684,66.04207 8.2135142,65.453789 7.1757633,64.450946 6.1889733,63.75248 5.7233067,63.422872 4.5041067,62.648071 3.47964,62.030707 c -2.3385695,-1.409277 -4.4748958,-2.825615 -5.647817,-3.7444 -4.6925738,-3.675838 -7.915199,-8.198003 -9.821401,-13.78193 -0.979449,-2.86915 -1.325838,-4.452959 -3.278022,-14.988363 -3.078362,-16.613005 -4.663119,-24.5606989 -6.151703,-30.8513983 -0.252501,-1.067054 -0.445931,-1.95326 -0.429835,-1.9693467 0.04514,-0.045144 0.998245,3.47206993 1.65591,6.1107743 1.358011,5.448698 2.89665,13.0404957 3.990366,19.6888697 l 0.272237,1.654877 0.815137,0.139472 c 1.570262,0.268672 3.222879,0.943271 4.579146,1.869211 0.351256,0.23981 1.0206647,0.817668 1.4875759,1.284131 2.1090636,2.107015 3.4248429,4.958046 4.0552032,8.786808 0.3714157,2.255986 0.4119202,3.246637 0.3504184,8.571298 -0.055152,4.775412 0.024206,8.901057 0.2050457,10.659821 0.089882,0.874107 -0.026391,0.72169 1.3560721,1.777653 1.6746898,1.279169 3.0645185,2.135039 6.6886667,4.118957 2.9799365,1.631264 4.3827954,2.521602 5.6726667,3.60023 0.6415786,0.536507 1.5592463,1.451356 1.9750703,1.969 0.173499,0.215984 0.226263,0.245457 0.226263,0.126382 0,-0.248573 1.303079,-5.420479 1.809377,-7.181376 2.253488,-7.837678 4.48796,-11.672206 6.487872,-11.133692 0.29867,0.08042 0.386926,0.0726 0.575631,-0.05105 0.358005,-0.234569 1.299507,-0.256261 2.060584,-0.04746 2.967998,0.814257 7.976108,4.310863 14.502088,10.125194 1.333483,1.188068 1.451389,1.31732 1.705051,1.869 0.149877,0.325966 0.297696,0.711318 0.328489,0.856344 l 0.05598,0.263677 0.694301,-0.467224 c 0.915018,-0.615773 2.390902,-1.319082 3.234292,-1.541247 0.761475,-0.200601 2.258898,-0.302666 2.836333,-0.193336 0.354279,0.06707 0.407247,0.05219 0.755269,-0.212277 1.309776,-0.995307 3.541649,-1.505712 5.658663,-1.29407 1.183462,0.118313 2.025184,0.333044 3.026012,0.771982 l 0.788577,0.345838 0.438742,-0.130294 c 1.947562,-0.578366 6.121925,-0.56211 9.629217,0.03749 3.502177,0.598728 6.03879,1.433635 9.379187,3.087099 2.706234,1.339553 5.041502,2.867651 6.68252,4.372745 l 0.586519,0.537938 0.683481,-0.02593 c 1.444599,-0.05479 3.206656,0.447235 5.424813,1.545565 1.457723,0.7218 2.181868,1.150755 1.312333,0.777375 -1.209429,-0.519328 -3.913962,-1.292665 -5.070034,-1.449738 l -0.455702,-0.06192 0.06032,0.326991 c 0.09881,0.535686 1.009387,3.216944 1.448071,4.263983 0.538937,1.286298 1.501428,3.165178 2.15265,4.202184 0.739258,1.177205 1.276333,1.907405 2.544995,3.460149 1.282734,1.569974 1.995974,2.605684 2.654419,3.854535 1.710105,3.24352 2.618172,6.862123 2.612779,10.411798 -0.0044,2.882875 -0.513808,5.114985 -1.684833,7.382284 -1.39429,2.69961 -3.907536,4.93477 -7.183662,6.38879 l -0.846666,0.37578 0.737158,-0.6846 c 2.456231,-2.28108 3.283569,-4.84249 2.401113,-7.43374 C 88.977683,98.848532 88.164789,97.622 85.988086,95.09271 84.589629,93.467728 83.68969,92.147902 82.772767,90.377217 81.063788,87.07697 79.891112,83.030013 79.462504,78.953406 l -0.103446,-0.983971 -0.430437,0.113547 c -1.301902,0.343433 -3.240608,0.354584 -4.931071,0.02836 -2.920475,-0.563592 -6.258941,-2.271023 -9.515577,-4.866683 -0.701615,-0.559206 -1.946402,-1.716193 -3.223463,-2.99609 l -2.080472,-2.085086 -0.671195,0.691879 c -1.751135,1.805085 -4.433942,2.862673 -6.904465,2.721804 l -0.73632,-0.04198 -0.536872,0.503013 c -0.71727,0.672033 -1.832618,1.502511 -2.611213,1.944285 -0.452721,0.256879 -1.036006,0.740732 -2.032,1.685629 -2.291478,2.17391 -3.725807,3.417976 -5.461,4.7366 -2.800595,2.128249 -5.720562,3.651521 -8.169156,4.261638 L 31.591336,84.782088 31.441569,85.439 c -0.601718,2.639322 -3.201442,4.026365 -7.539415,4.022538 -2.943225,-0.0026 -5.744794,-0.435906 -7.452707,-1.152694 -1.553802,-0.652103 -2.879488,-1.808742 -3.495742,-3.049964 -0.298501,-0.601235 -0.354847,-0.670052 -0.438692,-0.535796 -0.513411,0.822105 -2.163513,2.33658 -3.5320397,3.241726 -0.9587738,0.634136 -2.968608,1.626895 -4.2124799,2.080768 -3.2841353,1.198321 -7.142734,2.127402 -9.9079219,2.385652 -1.6436764,0.153501 -5.4339065,0.05757 -7.0462645,-0.178342 -0.927143,-0.135653 -1.738571,-0.190559 -3.005667,-0.203369 -1.362439,-0.01378 -1.972352,-0.05878 -2.836333,-0.209287 -4.416188,-0.769341 -9.152357,-2.781097 -12.674109,-5.383522 -1.057495,-0.781448 -3.090588,-2.681122 -3.824216,-3.573264 l -0.411649,-0.5006 -0.464405,0.486876 c -2.12609,2.228985 -5.502021,3.035588 -11.695913,2.7945 -4.814206,-0.187393 -7.557319,-0.647895 -9.974852,-1.674546 l -0.691145,-0.293506 -0.578855,0.578214 c -0.660257,0.659511 -1.414234,1.216965 -2.27219,1.679922 -0.325966,0.175895 -0.609484,0.333257 -0.630039,0.349699 -0.02056,0.01644 0.15396,0.228973 0.387809,0.472296 1.71414,1.783588 2.743726,3.708231 3.542174,6.621535 0.156489,0.570983 0.557622,2.347967 0.891406,3.948845 0.726228,3.483109 1.213268,5.427339 1.782942,7.117389 2.755908,8.17596 8.410897,14.60355 17.076208,19.40922 0.477309,0.26471 0.867834,0.49819 0.867834,0.51885 0,0.0416 -0.02046,0.0409 -1.524,-0.0541 z M 27.917708,75.390159 c 1.098906,-1.643093 2.091504,-3.025022 3.536442,-4.923528 0.632951,-0.831647 1.450061,-1.93614 1.815795,-2.454444 0.830208,-1.17652 1.621325,-2.193553 2.35635,-3.029221 l 0.567969,-0.645744 -0.524645,-0.05603 c -1.186578,-0.126729 -1.920723,-0.322114 -2.4982,-0.66487 -1.217058,-0.722368 -4.339641,-2.845833 -5.823738,-3.960343 -1.675045,-1.257901 -2.678743,-2.083765 -3.880561,-3.193025 -0.766462,-0.707433 -0.890744,-0.748877 -0.893851,-0.298078 -0.0022,0.322258 -0.6503,2.72183 -1.046802,3.875837 -1.904128,5.541992 -3.646263,9.25289 -5.192573,11.060608 -0.645727,0.754896 -1.419775,1.350001 -1.917556,1.474258 -0.208686,0.0521 -0.231834,0.08814 -0.180924,0.281771 0.192354,0.731655 0.469807,2.269185 0.516738,2.86357 l 0.05481,0.694199 0.347666,-0.284454 c 0.506815,-0.414664 1.518582,-0.931308 2.295009,-1.171905 1.911316,-0.592278 4.435907,-0.499703 6.623008,0.242849 0.802293,0.27239 2.047214,0.858147 2.563325,1.206085 0.20955,0.141266 0.389916,0.259817 0.400812,0.263432 0.0109,0.0036 0.407315,-0.572812 0.880923,-1.280964 z M -45.35186,123.27297 c 0.05821,-0.0235 0.153458,-0.0235 0.211667,0 0.05821,0.0235 0.01058,0.0427 -0.105834,0.0427 -0.116416,0 -0.164041,-0.0192 -0.105833,-0.0427 z m -0.333375,-0.0864 c 0.06112,-0.0245 0.134146,-0.0214 0.162281,0.007 0.02813,0.0281 -0.02188,0.0482 -0.111125,0.0445 -0.09864,-0.004 -0.118695,-0.0241 -0.05116,-0.0512 z m -0.338667,-0.0847 c 0.06112,-0.0245 0.134146,-0.0215 0.162281,0.007 0.02813,0.0281 -0.02188,0.0482 -0.111125,0.0445 -0.09864,-0.004 -0.118694,-0.0241 -0.05116,-0.0512 z M 86.733432,108.53921 c 0.06112,-0.0245 0.134146,-0.0215 0.16228,0.007 0.02813,0.0281 -0.02188,0.0481 -0.111125,0.0445 -0.09864,-0.004 -0.118694,-0.0241 -0.05116,-0.0511 z m 1.374216,-0.32439 c 5.397712,-1.45103 10.115101,-4.76012 12.973472,-9.100443 0.68969,-1.047259 0.78495,-1.158562 0.39857,-0.465667 -1.14631,2.05566 -3.007877,4.26985 -4.824383,5.73822 -2.304839,1.86312 -5.411157,3.32247 -8.3301,3.91348 -1.417667,0.28705 -1.493198,0.25734 -0.217559,-0.0856 z"
         id="path860" />
      <path
         style="display:inline;fill:#69872b;stroke-width:0.0846667"
         d="m -8.6514169,124.49321 c -0.047735,-0.0582 -0.3330448,-0.73448 -0.6340264,-1.50283 -1.1450747,-2.92316 -2.2973627,-4.85766 -4.1267807,-6.92818 -2.177694,-2.46469 -5.688482,-4.91676 -9.397873,-6.56384 -1.764207,-0.78335 -3.105243,-1.24854 -5.279982,-1.83157 -2.165791,-0.58061 -3.134369,-0.90443 -3.990281,-1.33401 -1.871963,-0.93953 -4.017764,-2.92944 -4.80568,-4.45657 -0.225196,-0.43646 -0.26968,-0.62127 -0.282118,-1.17206 -0.01468,-0.65041 -0.01685,-0.65622 -0.405189,-1.088149 -1.199549,-1.334186 -2.794593,-4.879382 -3.615961,-8.036958 -0.473685,-1.820985 -0.8382,-4.2307 -0.839097,-5.547089 v -0.424755 l 0.978932,-0.151012 c 2.179227,-0.336186 3.993795,-1.088085 5.216339,-2.161489 l 0.306764,-0.269342 0.392693,1.197653 c 1.709361,5.213299 2.446697,11.371486 1.661499,13.876773 -0.09462,0.301913 -0.172534,0.552873 -0.173135,0.557691 -8.47e-4,0.0048 0.637083,0.03162 1.417074,0.05955 1.633627,0.0585 2.574976,0.229548 4.169834,0.757691 2.029993,0.672236 4.575953,2.138316 6.780047,3.904236 2.647179,2.12094 7.264688,6.58471 8.527483,8.24358 2.132668,2.80159 3.7126499,6.49901 4.3364993,10.14814 0.3034877,1.7752 0.1772074,3.22734 -0.2367534,2.72254 z M 60.587307,94.660944 C 57.796532,94.47411 55.982287,94.048846 54.898122,93.327376 54.640625,93.156028 54.138306,92.65602 53.720916,92.155598 53.113594,91.427465 52.827564,90.968893 51.996146,89.390385 50.115048,85.818967 48.078357,81.566744 47.164304,79.302377 l -0.358868,-0.889 -1.396577,-0.579019 -1.396585,-0.579018 0.730166,-0.690982 c 0.40159,-0.380043 1.1171,-1.062456 1.590023,-1.516481 0.799896,-0.767919 1.046844,-0.943915 1.046844,-0.746041 0,0.0437 0.333375,0.41673 0.740833,0.828955 1.394807,1.411131 2.630399,3.288165 4.000009,6.076586 1.387052,2.823912 2.576669,6.03879 3.334995,9.012631 l 0.355125,1.392623 0.547015,0.102141 c 1.699353,0.317323 6.473173,1.784867 8.717356,2.679853 l 0.211667,0.08441 -0.238794,0.06827 c -0.262958,0.07518 -3.719229,0.163237 -4.460206,0.113631 z M 23.841973,75.137285 C 22.477435,74.650087 20.098564,74.432426 18.70512,74.667283 l -0.691862,0.116611 0.251951,-0.499101 c 0.668341,-1.323992 1.976695,-3.377904 2.873138,-4.510397 1.832559,-2.315108 3.517654,-3.426019 5.196789,-3.426019 h 0.599761 l 0.155736,-0.4445 c 0.23357,-0.666649 0.887324,-1.270474 1.620791,-1.497026 1.185765,-0.366242 2.982892,-0.184319 5.069366,0.513165 1.599768,0.53478 1.527979,0.391787 0.718524,1.431256 -0.37951,0.487359 -0.941942,1.248055 -1.24985,1.690438 -0.829877,1.192335 -2.39599,3.217333 -2.488251,3.217333 -0.09042,0 -1.51009,-0.786307 -1.844565,-1.021638 l -0.217001,-0.152671 -0.320497,0.650654 c -0.437092,0.887366 -0.825144,1.527446 -1.474199,2.431686 -0.434213,0.604935 -0.731859,0.906154 -1.422239,1.439334 -0.480213,0.370865 -0.941053,0.679441 -1.024094,0.685724 -0.08303,0.0063 -0.360528,-0.0634 -0.616645,-0.154847 z M -62.419115,47.803329 c -1.444563,-0.646752 -3.750898,-1.316948 -5.517578,-1.60335 -0.582084,-0.09436 -1.083757,-0.171577 -1.114828,-0.171585 -0.09099,-2.6e-5 -1.358443,-1.751991 -2.217009,-3.064519 -2.188947,-3.346323 -3.718163,-6.556172 -5.094685,-10.693832 -1.019238,-3.063705 -1.880935,-6.686296 -2.037763,-8.566793 l -0.05579,-0.669028 -0.697975,0.362348 c -1.612183,0.836947 -3.702975,1.53985 -5.795467,1.948375 -1.045407,0.204097 -1.335764,0.224578 -3.264146,0.230226 -2.362812,0.0069 -3.047645,-0.07301 -5.164667,-0.60281 -2.782299,-0.69629 -5.777792,-2.120832 -7.462417,-3.548846 l -0.43508,-0.368808 -0.53859,0.696333 c -1.40832,1.820799 -3.34579,3.922954 -7.22551,7.839718 -7.51462,7.586362 -13.37696,12.789696 -15.8946,14.107854 -0.3595,0.188223 -0.48744,0.305444 -0.52201,0.478282 -0.0695,0.347523 -0.50825,0.790906 -1.00468,1.015289 -0.40506,0.183092 -0.55941,0.201194 -1.71512,0.201194 -1.00799,0 -1.46214,-0.04076 -2.20133,-0.19757 -1.69132,-0.3588 -4.17082,-1.269441 -6.096,-2.238875 -0.81,-0.407873 -0.85363,-0.379425 1.05833,-0.690185 3.89422,-0.632951 6.95284,-0.70005 8.48512,-0.18614 l 0.58451,0.196037 0.27684,-0.346634 c 0.15226,-0.190652 0.91861,-1.184833 1.70301,-2.2093 3.44267,-4.496342 9.92412,-12.783693 10.69402,-13.673667 1.02991,-1.190532 2.85561,-2.981765 3.82584,-3.753603 1.90983,-1.519318 4.48803,-2.955866 6.72196,-3.745433 0.36756,-0.129913 0.76761,-0.329853 0.889,-0.444306 0.96581,-0.910691 5.112344,-1.505187 11.157138,-1.599615 7.200225,-0.11248 12.604785,0.723078 14.717569,2.275365 0.186267,0.136847 0.613299,0.427872 0.948961,0.64671 1.595143,1.03996 3.555297,3.093923 5.752911,6.028216 1.759515,2.349339 3.084255,4.531741 4.394133,7.239 2.753983,5.691936 4.01806,11.125488 3.412619,14.668923 -0.04977,0.29127 -0.116803,0.545846 -0.148968,0.565726 -0.03217,0.01988 -0.22015,-0.03624 -0.417744,-0.124697 z M 25.624266,-58.710867 c -3.338508,-0.376426 -6.713753,-1.658451 -9.825626,-3.732079 -1.663234,-1.108316 -2.461582,-1.760313 -3.813226,-3.114209 -3.1636629,-3.168935 -5.2641921,-6.708718 -5.9818183,-10.080468 -0.2286424,-1.074268 -0.2103967,-3.338978 0.034789,-4.318 0.4610693,-1.841054 1.1489351,-3.165045 2.1804291,-4.196856 1.2737677,-1.274153 3.0592432,-1.985917 4.9727532,-1.982341 1.564615,0.0029 2.696473,0.414948 3.59145,1.307378 0.871846,0.869352 1.262549,1.865451 1.678457,4.279152 1.329165,7.713832 4.156854,14.111303 7.692941,17.404795 2.124236,1.978503 4.734653,2.992831 7.716325,2.998321 0.512868,9.48e-4 0.810963,0.03192 0.762,0.07919 -0.111904,0.108017 -1.697245,0.650067 -2.525911,0.863645 -1.845852,0.47574 -4.701778,0.692261 -6.482563,0.491471 z"
         id="path858" />
      <path
         style="display:inline;fill:#68872b;stroke-width:0.0846667"
         d="m -49.521693,127.76378 c -3.158307,-0.25196 -6.490894,-0.9857 -9.417818,-2.07356 -11.971201,-4.44935 -21.771165,-14.63696 -24.057891,-25.00951 -0.310846,-1.409996 -0.440915,-2.530729 -0.491308,-4.233333 -0.152289,-5.145261 1.008364,-9.019024 2.979017,-9.942686 0.520759,-0.244086 1.381238,-0.319634 2.00142,-0.175726 1.628732,0.377935 3.924031,2.034963 7.065205,5.10054 3.66546,3.577234 5.978778,6.625886 10.057074,13.253925 3.284532,5.33801 4.736232,7.2701 7.395771,9.84319 3.896327,3.76967 9.089196,6.91348 14.89136,9.0154 0.600507,0.21754 1.148986,0.42891 1.218836,0.4697 0.295309,0.17247 -2.157433,0.0248 -4.402666,-0.26508 -6.816581,-0.88005 -13.484778,-3.58789 -19.134667,-7.77026 l -0.973667,-0.72077 0.436757,0.50189 c 0.872924,1.00309 2.736561,2.73824 4.092376,3.81023 0.946185,0.74811 3.044948,2.12442 4.15096,2.72207 3.462657,1.87111 6.945581,2.89232 12.218079,3.58239 2.647518,0.34652 2.933954,0.43433 2.517259,0.77175 -0.409694,0.33176 -2.081429,0.70512 -4.323097,0.96552 -1.090092,0.12663 -5.270627,0.2303 -6.223,0.15432 z M 86.66464,108.40648 c 2.298251,-1.08619 3.328789,-1.70951 4.624807,-2.79729 2.55314,-2.14292 4.115265,-5.0822 4.658216,-8.764888 0.183913,-1.247394 0.181093,-3.73468 -0.0058,-5.053592 -0.411581,-2.905599 -1.211656,-5.440434 -2.471242,-7.829465 -0.658444,-1.248851 -1.371685,-2.284561 -2.654418,-3.854535 -1.268663,-1.552744 -1.805737,-2.282944 -2.544996,-3.460149 -0.651222,-1.037006 -1.613713,-2.915886 -2.15265,-4.202184 -0.438683,-1.047039 -1.349265,-3.728297 -1.448071,-4.263983 l -0.06032,-0.326991 0.455701,0.06192 c 0.664253,0.09025 2.616192,0.580644 3.546035,0.890888 3.340252,1.114475 6.354005,2.938941 8.876792,5.373835 3.575286,3.450709 5.762386,7.579318 6.505366,12.280215 0.22473,1.421892 0.20191,4.065117 -0.0474,5.483733 -0.34449,1.960541 -0.99591,3.894937 -1.84442,5.477052 -2.849944,5.313924 -8.02113,9.253934 -14.233538,10.844764 -1.443728,0.3697 -1.769237,0.40772 -1.204163,0.14067 z M -8.3736933,80.180243 c -2.4528777,-0.26466 -4.7527807,-0.949799 -7.9586667,-2.370887 -2.572063,-1.140121 -2.794246,-1.288897 -4.296969,-2.877253 -2.557543,-2.703296 -5.486493,-5.297635 -8.389501,-7.431066 -0.88961,-0.653779 -2.809875,-1.921332 -3.469759,-2.29036 -0.512521,-0.286614 -2.456256,-1.984502 -5.730104,-5.005358 -1.931112,-1.781878 -2.731559,-2.62575 -3.593508,-3.788435 -2.984559,-4.025867 -4.916864,-8.317916 -6.39224,-14.198507 -0.827286,-3.297411 -2.228401,-10.604018 -2.841354,-14.817243 -1.153245,-7.926908 -0.885562,-14.638731 0.854261,-21.4200907 3.024717,-11.7894777 10.221307,-24.0077533 15.690097,-26.6384303 1.329961,-0.639757 1.60125,-0.726098 2.426123,-0.772141 1.340841,-0.07484 2.348315,0.349055 3.470555,1.460238 2.884136,2.85573 5.344549,9.866317 8.334874,23.749 1.217617,5.6528462 2.572935,12.625849 5.002285,25.736304 1.952184,10.535404 2.298573,12.119213 3.278022,14.988363 1.906202,5.583927 5.1288272,10.106092 9.821401,13.78193 1.1729212,0.918785 3.3092475,2.335123 5.647817,3.7444 2.3261235,1.401767 3.3785133,2.144039 4.1962832,2.959684 0.9905238,0.98795 1.4812857,1.989184 1.5758075,3.214878 0.1634575,2.119732 -0.9544981,4.399314 -3.245231,6.617233 -2.6802164,2.595025 -6.49914877,4.521344 -10.316193,5.203622 -0.7398851,0.13225 -3.3494726,0.231216 -4.064,0.154119 z M 82.516828,66.899616 C 82.40699,66.7827 82.346479,66.687043 82.382352,66.687043 c 0.110609,0 0.994554,0.268216 0.965404,0.292939 -0.0151,0.01279 -0.163297,0.04778 -0.329337,0.07774 -0.252738,0.0456 -0.334399,0.01986 -0.501591,-0.158106 z"
         id="path856" />
    </g>
  </g>
</svg>
